<svg width="50" height="50" viewBox="0 0 50 50" fill="none" xmlns="http://www.w3.org/2000/svg">
<path fill-rule="evenodd" clip-rule="evenodd" d="M32.9986 16.4992C33.5681 17.0687 33.5681 17.9921 32.9986 18.5616L18.5618 32.9984C17.9923 33.5679 17.069 33.5679 16.4994 32.9984C15.9299 32.4289 15.9299 31.5055 16.4994 30.936L30.9362 16.4992C31.5057 15.9297 32.4291 15.9297 32.9986 16.4992Z" fill="#373F44"/>
<path fill-rule="evenodd" clip-rule="evenodd" d="M16.4994 16.4992C17.069 15.9297 17.9923 15.9297 18.5618 16.4992L32.9986 30.936C33.5681 31.5055 33.5681 32.4289 32.9986 32.9984C32.4291 33.5679 31.5057 33.5679 30.9362 32.9984L16.4994 18.5616C15.9299 17.9921 15.9299 17.0687 16.4994 16.4992Z" fill="#373F44"/>
</svg>
