<svg width="50" height="50" viewBox="0 0 50 50" fill="none" xmlns="http://www.w3.org/2000/svg">
<path d="M0 47.1234V2.02544C0.00638213 2.03363 0.0132725 2.04143 0.0206299 2.04879C0.0269438 2.05326 0.0338966 2.05677 0.0412599 2.05924C0.0721639 2.02157 0.0981999 1.98029 0.118774 1.93633C0.422998 1.02194 1.04061 0.416026 1.97162 0.118601C2.03413 0.0989364 2.11477 0.101395 2.06226 0H47.9377C47.9293 0.00609365 47.9213 0.0128763 47.914 0.0202781C47.909 0.0258088 47.9009 0.0362547 47.9027 0.0405563C47.9346 0.102008 48.0003 0.109997 48.0584 0.129047C48.9636 0.426062 49.5678 1.02009 49.8712 1.91114C49.8887 1.96399 49.8619 2.09242 50 2.02974V47.1234C49.994 47.1151 49.9873 47.1073 49.98 47.1001C49.9737 47.0945 49.9631 47.0866 49.9587 47.089C49.8962 47.1197 49.8875 47.1836 49.8681 47.2408C49.5687 48.1349 48.9629 48.7242 48.0571 49.0241C48.004 49.0419 47.8696 49.0137 47.9359 49.1507H34.4958C34.5033 49.0186 34.5177 48.8865 34.5177 48.7543C34.5177 42.6502 34.5158 36.5474 34.5121 30.4461C34.5121 30.1671 34.5827 30.0897 34.8715 30.0915C36.7982 30.1051 38.7254 30.0915 40.652 30.1063C40.9383 30.1063 41.0158 30.0147 41.0489 29.756C41.3332 27.5208 41.627 25.2881 41.9304 23.0578C41.9697 22.7696 41.8991 22.6952 41.6041 22.6965C39.3643 22.7081 37.1251 22.6965 34.8853 22.71C34.5727 22.71 34.5058 22.6227 34.5102 22.3321C34.529 21.3802 34.5102 20.4271 34.5183 19.4758C34.5233 18.6874 34.4877 17.899 34.5584 17.1118C34.7003 15.5208 35.4998 14.6795 37.0995 14.4325C37.5224 14.3738 37.9494 14.3475 38.3766 14.3538C39.5643 14.3538 40.752 14.3483 41.9397 14.3575C42.1623 14.3575 42.2442 14.3139 42.2429 14.0724C42.2325 12.0449 42.2325 10.017 42.2429 7.98869C42.2429 7.75763 42.1673 7.69003 41.946 7.67713C41.104 7.62797 40.2638 7.54009 39.4218 7.50998C37.8196 7.45283 36.2143 7.333 34.6165 7.55853C32.2042 7.89835 30.1338 8.86683 28.6297 10.8155C27.4195 12.3849 26.8707 14.1953 26.7544 16.1359C26.6294 18.2111 26.7206 20.2919 26.7113 22.3702C26.7113 22.6455 26.6325 22.7075 26.3624 22.7057C24.4046 22.6946 22.4461 22.7057 20.4863 22.6946C20.23 22.6946 20.1519 22.7561 20.1532 23.0166C20.1632 25.2699 20.1632 27.5231 20.1532 29.7763C20.1532 30.0614 20.2469 30.1075 20.5082 30.1063C22.4461 30.0958 24.3839 30.1063 26.3218 30.0922C26.6406 30.0922 26.7125 30.1708 26.7119 30.4781C26.7019 36.5913 26.6992 42.7042 26.7038 48.817C26.7038 48.9289 26.6913 49.0407 26.6844 49.1525H2.06226C2.07074 49.1465 2.07869 49.1397 2.08602 49.1323C2.09102 49.1267 2.09915 49.1163 2.09727 49.112C2.06539 49.0505 2.00038 49.0425 1.94224 49.0235C1.03707 48.7269 0.43279 48.1341 0.1294 47.2451C0.110646 47.1898 0.137526 47.0626 0 47.1234Z" fill="#071E2E"/>
</svg>
