<svg width="62" height="50" viewBox="0 0 62 50" fill="none" xmlns="http://www.w3.org/2000/svg">
<path d="M41.4438 32.1731C41.2622 32.5776 41.05 32.9675 40.809 33.3393C38.4649 36.9766 33.7946 38.8577 29.8568 38.2545C28.4928 39.8803 26.9698 41.3638 25.3108 42.6827C23.885 43.7953 22.3755 44.7948 20.7958 45.672C19.6619 46.3013 18.4957 46.8695 17.302 47.3744C17.1599 47.4325 17.0178 47.4951 16.858 47.5487C15.4382 48.1272 13.9836 48.6152 12.5029 49.0098L12.5606 48.9652L12.7204 48.8356L12.9602 48.6434C15.2294 46.8708 17.2369 44.7826 18.9224 42.4414C19.6872 41.3504 20.3699 40.2033 20.9645 39.0097C21.2531 38.4288 21.4973 37.897 21.697 37.4279C21.5537 38.7139 21.2647 39.9792 20.8358 41.1992C20.2583 42.8342 19.4316 44.3688 18.3852 45.7479C22.141 43.5406 26.3763 40.5647 27.828 37.7049C26.5927 37.1918 25.5275 36.3365 24.7559 35.2384C20.5517 29.2463 16.1654 28.7012 16.1654 28.7012C12.2587 27.6779 9.16883 31.0068 8.69824 31.5475C16.8047 20.4436 25.7947 34.2643 25.7947 34.2643C26.0788 34.5368 29.2486 37.4726 33.5593 36.5565C34.7165 36.2905 35.8079 35.7905 36.7672 35.0869C37.7264 34.3832 38.5336 33.4907 39.1397 32.4635C41.1863 28.9603 39.9211 25.3767 39.6281 24.5456C39.2552 23.4911 38.5049 21.3641 36.374 20.1532C35.0226 19.4375 33.4839 19.1612 31.97 19.3623C30.9834 19.4647 30.0228 19.7431 29.1332 20.1845C29.9809 19.2896 31.0731 18.6676 32.2719 18.3971C33.1706 18.2053 34.1006 18.219 34.9933 18.4374C34.9489 17.9637 34.829 16.2032 35.9966 15.0101C36.1897 14.8145 36.4059 14.6434 36.6403 14.5007C36.3428 14.9574 36.1402 15.4699 36.0449 16.0075C35.9495 16.5451 35.9633 17.0965 36.0854 17.6286C36.1808 17.982 36.3306 18.3182 36.5293 18.625C37.7175 19.2244 38.7801 20.0481 39.6592 21.0513C40.3576 21.854 40.9323 22.7578 41.3639 23.7324C41.742 24.5884 42.0105 25.4893 42.163 26.4134C42.5171 28.362 42.266 30.3732 41.4438 32.1731V32.1731Z" fill="#1D1D1B"/>
<path d="M60.0049 26.4445C56.7729 33.6207 47.7875 34.2105 46.9795 34.2552C44.8832 34.3517 42.788 34.0407 40.8086 33.3392C41.0496 32.9674 41.2618 32.5775 41.4434 32.1729C44.5459 33.2299 47.9045 33.2502 51.0194 32.231C52.4622 31.744 55.5077 30.6582 57.5943 27.5437C60.915 22.5883 58.7219 16.8197 58.6242 16.5873C57.7908 14.5127 56.3881 12.7195 54.5799 11.4174C53.0841 10.3943 51.3813 9.71823 49.5943 9.43793C49.3502 9.39772 49.106 9.36644 48.8707 9.3441C48.2373 9.26894 47.5986 9.24802 46.9617 9.28154C45.9081 9.32663 44.8642 9.50375 43.8541 9.80881C44.7898 9.30621 45.7889 8.93343 46.8241 8.70065C47.4232 8.5687 48.0319 8.48503 48.6443 8.45043C49.3592 8.41299 50.076 8.44742 50.7841 8.5532C52.9072 8.87289 54.8931 9.804 56.5022 11.2342C58.3094 12.8148 59.6617 14.8549 60.4178 17.1414C60.6841 18.0038 61.9361 22.1504 60.0049 26.4445Z" fill="#1D1D1B"/>
<path d="M48.8714 9.32189C48.238 9.24674 47.5994 9.22581 46.9625 9.25934C46.9181 9.07167 46.8692 8.87506 46.8115 8.67845C47.4107 8.5465 48.0193 8.46283 48.6317 8.42822C48.7294 8.73654 48.8093 9.04039 48.8714 9.32189Z" fill="#1D1D1B"/>
<path d="M35.9078 31.3328C35.4351 29.4773 34.2695 27.8767 32.6537 26.8645C31.8451 26.371 30.9327 26.0756 29.99 26.0021C27.0466 25.801 25.8391 28.0977 23.8102 27.7894C22.8868 27.6464 21.6971 26.9449 20.5117 24.5141C21.2797 25.238 22.4784 26.1272 23.9834 26.1763C25.8302 26.2389 26.6471 24.9967 28.3563 24.4918C28.2885 24.2499 28.1885 24.0184 28.0588 23.8036C27.6149 23.0887 27.091 22.91 26.6426 22.4631C26.1188 21.9493 25.6216 20.9975 25.7547 19.0493C26.041 20.0247 26.6024 20.8955 27.3707 21.5561C28.1698 22.2129 28.778 22.2308 29.3241 22.8966C29.6367 23.2972 29.8347 23.7762 29.8968 24.2818C31.4344 24.2958 32.9145 24.8723 34.061 25.9038C36.2363 27.9503 35.9522 30.9307 35.9078 31.3328Z" fill="#1D1D1B"/>
<path d="M48.6313 8.42815C48.0189 8.46276 47.4103 8.54643 46.8111 8.67838C46.3672 7.15914 45.6169 5.42542 44.2407 4.5943C41.537 2.95888 36.7912 2.3914 34.1054 6.73018C34.1354 5.8735 34.4131 5.04426 34.9045 4.34407C34.7846 4.20109 31.9833 0.916846 27.8013 1.61838C26.7583 1.81598 25.7665 2.22633 24.8869 2.82419C24.0074 3.42205 23.2587 4.19476 22.687 5.09476C24.258 5.6089 25.6018 6.65807 26.4872 8.06175C24.7342 6.83731 22.701 6.08088 20.5782 5.86332C16.4407 5.47457 11.7748 7.23957 9.3153 10.993C8.58846 12.111 8.07369 13.3548 7.797 14.6615C8.90355 14.6828 9.99766 14.9006 11.0289 15.305C5.83918 15.0369 3.48183 18.1021 2.43855 21.1451C3.54451 19.5359 5.14717 18.3391 6.9979 17.7402C9.12584 17.1169 11.4014 17.243 13.4484 18.0977C14.6018 18.8515 15.8893 19.3735 17.2398 19.6348H17.2753C17.6926 18.7098 18.727 15.7786 16.1033 13.7634C16.1033 13.7634 20.667 14.2728 19.1043 19.8091C20.9118 19.8013 22.6912 19.3585 24.2941 18.5177C23.7117 19.2867 22.9613 19.9105 22.101 20.3408C20.1521 21.2926 18.0256 22.1773 13.5905 19.9476C12.5605 19.4401 11.4376 19.1516 10.2919 19.1001C9.14618 19.0486 8.00221 19.2352 6.9313 19.6482C5.16372 20.3886 3.71149 21.7316 2.82923 23.4418C1.96078 25.1073 1.61407 26.9986 1.83479 28.8664C1.94578 29.7601 2.2299 32.0345 4.10336 33.7816C4.8645 34.4813 5.76204 35.0139 6.73883 35.3455C7.71563 35.6771 8.75031 35.8003 9.77702 35.7075C11.8591 35.4885 12.5872 34.367 14.7359 34.4965C15.7098 34.5684 16.6551 34.8601 17.5017 35.35C16.5774 35.1233 15.6084 35.162 14.7048 35.4617C14.0841 35.6967 13.5142 36.0503 13.0267 36.5028C10.9668 38.1293 7.28203 38.1204 4.67162 36.8514C3.57007 36.3105 2.60124 35.5307 1.83479 34.568C-0.864414 31.1453 0.15665 26.6903 0.347547 25.8592C0.59775 24.787 0.974853 23.7489 1.47075 22.7671V22.7671C1.7016 17.6419 3.69048 15.6177 5.76816 14.9475C7.35749 9.37991 12.3253 6.42633 12.3253 6.42633C16.1699 4.63899 19.0866 4.33961 21.2442 4.70601C21.6881 3.52637 23.0955 2.29757 23.0955 2.29757C28.96 -2.59528 34.5094 1.61838 36.1653 3.12421C37.1153 2.49418 38.5093 2.0384 40.5559 2.03394C45.6213 2.0384 47.7789 5.6533 48.6313 8.42815Z" fill="#1D1D1B"/>
<path d="M51.775 24.1524C51.6296 25.0969 51.291 26.0007 50.7805 26.8066C50.3246 27.5073 49.74 28.1139 49.058 28.5939C50.1649 27.1048 50.7588 25.2927 50.7495 23.433C50.7322 22.052 50.3606 20.6991 49.6707 19.5053C49.1049 18.378 48.1837 17.4713 47.0514 16.9271C45.9664 16.4707 44.7619 16.3884 43.6256 16.6931C42.4893 16.9978 41.4851 17.6724 40.7695 18.6116C40.8628 18.4284 42.0214 16.1942 44.2145 15.4614C44.4321 13.6115 42.8827 12.0476 42.8827 12.0476C45.4354 12.2487 45.9903 14.2326 46.0747 15.247C47.8771 15.4167 49.1246 16.6366 49.5908 17.1013C50.8115 18.344 51.5916 19.9568 51.8105 21.6903C53.24 21.6501 55.957 21.1184 55.8504 17.6688C55.8193 17.6554 57.5463 22.9727 51.775 24.1524Z" fill="#1D1D1B"/>
<path d="M39.5612 10.6847C40.0704 11.2864 40.4715 11.9729 40.7465 12.7133C40.4402 12.4318 36.9064 9.30394 33.155 10.4434C32.2603 10.7234 31.4354 11.1926 30.7355 11.8196C29.3763 13.1146 28.568 14.8889 28.4803 16.7706C27.9281 15.5396 27.8382 14.1489 28.2272 12.8563C28.3673 12.4059 28.569 11.9773 28.8265 11.5828C28.1828 10.993 26.6068 10.2065 23.2461 11.5828C24.0912 10.6694 25.2025 10.0496 26.42 9.8127C27.6375 9.5758 28.8983 9.73405 30.0207 10.2646C30.4134 9.94388 30.8463 9.67647 31.3082 9.46926C31.4725 9.3799 34.549 7.77129 37.4968 9.11626C37.7454 8.38792 38.7798 5.9616 41.4924 6.30567C40.7772 6.76241 40.2122 7.42189 39.8686 8.2011C39.5249 8.9803 39.418 9.84441 39.5612 10.6847V10.6847Z" fill="#1D1D1B"/>
</svg>
