<svg width="229" height="234" viewBox="0 0 229 234" fill="none" xmlns="http://www.w3.org/2000/svg">
<path d="M70.6414 234H68.0381V226.13C66.8711 202.85 56.7868 193.124 50.8919 189.384C43.7701 184.895 41.9148 184.477 36.379 183.31C34.8529 182.98 32.9378 182.561 30.5738 181.993C29.5265 181.724 28.4493 181.484 27.4019 181.245C22.9134 180.197 18.3052 179.15 14.0261 177.085C7.80203 174.123 3.52297 169.365 2.20634 164.039C0.859777 158.533 3.16389 152.817 5.16876 147.76C5.468 147.042 5.76724 146.294 6.03655 145.576C6.69486 143.84 6.4854 141.836 5.468 140.28C5.19869 139.861 4.86953 139.472 4.51045 139.053C4.00175 138.454 3.49305 137.826 3.07412 137.078C2.02679 135.133 1.96695 132.709 2.98435 130.734C3.49305 129.746 4.36083 128.819 5.40815 128.101C4.71991 127.562 4.12144 126.874 3.73243 126.096C2.47565 123.762 2.68511 121.398 4.24113 120.081C6.78463 117.957 8.93913 115.982 9.59744 113.408C9.80691 112.54 9.83683 111.822 9.62737 110.925C7.17364 109.279 4.48052 107.394 2.53549 104.82C0.111688 101.738 -0.636399 97.848 0.560542 94.7658C1.72756 91.7136 4.48052 89.7686 6.69486 88.2425C8.5202 86.9558 10.4054 85.7589 12.2307 84.5919C17.3476 81.3302 22.1653 78.278 25.7861 73.6997C28.6587 70.0789 30.2447 65.74 31.8905 61.1318C32.5787 59.2466 33.2669 57.3315 34.045 55.4763C37.9949 46.17 44.3087 38.2403 50.4431 30.5799C57.3255 21.9918 70.1926 13.8826 73.9929 11.6084C93.4132 -0.0917246 109.153 -0.480732 126.269 0.207509C145.929 0.98552 164.901 7.29938 179.623 17.9522C189.947 25.433 198.714 35.4873 204.968 47.0677C211.222 58.6481 214.813 71.5153 215.382 84.2328C215.95 96.9802 213.496 110.087 208.32 122.206C203.143 134.295 195.303 145.127 185.667 153.476C177.438 160.628 172.441 165.595 165.2 173.854C152.482 188.367 149.58 210.57 158.168 227.866L155.834 229.033C146.767 210.839 149.819 187.439 163.225 172.148C170.556 163.799 175.583 158.772 183.932 151.531C193.268 143.421 200.839 132.918 205.896 121.188C210.923 109.458 213.287 96.7109 212.748 84.3824C212.21 72.024 208.709 59.5758 202.634 48.3245C196.56 37.0733 188.061 27.3182 178.067 20.0767C163.763 9.72319 145.331 3.58887 126.15 2.84078C105.921 2.03284 92.4856 3.4991 75.3095 13.8526C71.6289 16.067 59.061 23.9668 52.4779 32.2257C46.4632 39.7365 40.2391 47.5166 36.4388 56.4937C35.6908 58.2891 35.0025 60.2042 34.3442 62.0295C32.6685 66.6377 30.9628 71.3956 27.8209 75.3455C23.9308 80.2529 18.6942 83.5744 13.6371 86.8062C11.8417 87.9433 9.95653 89.1402 8.19104 90.397C5.82708 92.0428 3.82221 93.5988 2.98435 95.7234C1.96695 98.4165 3.13396 101.439 4.57029 103.354C6.33578 105.718 8.93913 107.453 11.4228 109.129C11.6622 109.309 11.8716 109.548 11.9614 109.847C12.4402 111.433 12.4701 112.66 12.0811 114.156C11.1535 117.747 8.10127 120.321 5.88693 122.176C5.25854 122.714 5.49792 124.001 6.00662 124.959C6.57517 126.006 7.68234 126.754 8.87928 126.874C9.5376 126.934 10.0463 127.502 10.0463 128.16C10.0463 128.819 9.56752 129.387 8.9092 129.477C7.56265 129.657 5.91685 130.794 5.31838 131.991C4.71991 133.188 4.74983 134.714 5.37823 135.911C5.67746 136.449 6.09639 136.928 6.51532 137.467C6.90433 137.916 7.29333 138.394 7.65242 138.933C9.11867 141.177 9.4179 144.11 8.46035 146.593C8.19104 147.312 7.8918 148.06 7.59257 148.808C5.61762 153.715 3.58282 158.772 4.74983 163.47C5.85701 168.019 9.65729 172.148 15.1333 174.781C19.143 176.696 23.6316 177.744 27.9705 178.731C29.0477 178.971 30.125 179.24 31.1723 179.479C33.5063 180.048 35.3317 180.437 36.9176 180.796C42.6031 182.023 44.7576 182.502 52.2684 187.23C59.091 191.539 64.148 198.391 67.29 207.607C69.1453 213.113 70.3123 219.487 70.6414 226.07C70.6414 226.1 70.6414 226.1 70.6414 226.13V234Z" fill="#373F44"/>
<path d="M63.3997 96.1424C60.4074 96.1424 57.415 95.514 54.662 94.2871C49.2758 91.8932 44.6975 87.1653 42.1241 81.3003C41.8248 80.642 42.1241 79.864 42.7824 79.5947C43.4407 79.2954 44.2187 79.5947 44.488 80.253C46.7922 85.5195 50.8917 89.7687 55.7094 91.8932C60.4672 94.0178 65.9731 94.0776 70.7609 92.0129C71.4192 91.7436 72.1972 92.0428 72.4665 92.7012C72.7358 93.3595 72.4366 94.1375 71.7783 94.4068C69.145 95.5738 66.2724 96.1424 63.3997 96.1424Z" fill="#373F44"/>
<path d="M24.3793 60.5034L22.8232 60.0246C23.0327 59.3962 23.2422 58.7678 23.4516 58.1394L25.0077 58.6781C24.7683 59.2765 24.5887 59.9049 24.3793 60.5034ZM25.6361 56.8527L24.11 56.2842C24.3493 55.6857 24.5887 55.0573 24.8281 54.4289L26.3542 55.0274C26.0849 55.6558 25.8754 56.2543 25.6361 56.8527ZM27.0724 53.2619L25.5762 52.6335C25.8455 52.035 26.0849 51.4366 26.3841 50.8381L27.8803 51.4964C27.5811 52.065 27.3118 52.6634 27.0724 53.2619ZM28.6583 49.7309L27.1921 49.0128C27.4913 48.4143 27.7606 47.8158 28.0599 47.2473L29.5261 47.9954C29.2269 48.5639 28.9576 49.1325 28.6583 49.7309ZM30.4238 46.2598L28.9875 45.4818C29.2867 44.9133 29.6159 44.3148 29.945 43.7462L31.3514 44.5542C31.0522 45.1227 30.7231 45.6913 30.4238 46.2598ZM32.3389 42.9084L30.9325 42.0705C31.2617 41.502 31.6208 40.9334 31.9798 40.3948L33.3563 41.2626C33.0272 41.8012 32.6681 42.3398 32.3389 42.9084ZM34.4036 39.6168L33.0571 38.7191C33.4162 38.1805 33.8052 37.6119 34.1643 37.0733L35.5108 38.0009C35.1218 38.5395 34.7627 39.0782 34.4036 39.6168ZM36.618 36.4449L35.3014 35.4873C35.6904 34.9487 36.0794 34.44 36.4983 33.9014L37.785 34.8889C37.396 35.3976 37.007 35.9362 36.618 36.4449ZM38.9819 33.3628L37.7252 32.3454C38.1441 31.8367 38.563 31.328 38.9819 30.8193L40.2387 31.8666C39.8198 32.3753 39.4009 32.8541 38.9819 33.3628ZM41.4955 30.4003L40.2687 29.3231C40.6876 28.8443 41.1364 28.3356 41.5853 27.8568L42.7822 28.964C42.3334 29.4428 41.9144 29.9216 41.4955 30.4003ZM44.1288 27.5576L42.9618 26.4205C43.4106 25.9417 43.8894 25.463 44.3383 25.0141L45.4753 26.1811C45.0265 26.63 44.5477 27.0788 44.1288 27.5576ZM46.8818 24.8346L45.7746 23.6376C46.2534 23.1888 46.7321 22.7399 47.2408 22.2911L48.3181 23.488C47.8094 23.9369 47.3306 24.3857 46.8818 24.8346ZM49.7544 22.2312L48.6772 21.0044C49.1859 20.5854 49.6946 20.1366 50.2033 19.7476L51.2506 21.0044C50.7419 21.3934 50.2332 21.8123 49.7544 22.2312ZM52.7468 19.7775L51.7294 18.4908C52.2381 18.0719 52.7767 17.6828 53.3153 17.2938L54.3028 18.6105C53.7642 18.9696 53.2555 19.3885 52.7468 19.7775ZM55.8588 17.4734L54.9312 16.1567C55.4698 15.7677 56.0084 15.4087 56.5471 15.0197L57.4448 16.3662C56.9061 16.7253 56.3675 17.0844 55.8588 17.4734Z" fill="#373F44"/>
<path d="M144.164 209.433C144.044 208.774 143.954 208.116 143.865 207.458L145.481 207.248C145.57 207.877 145.66 208.505 145.78 209.134L144.164 209.433ZM143.655 205.483C143.595 204.825 143.565 204.166 143.565 203.478L145.181 203.448C145.181 204.076 145.211 204.735 145.271 205.363L143.655 205.483ZM145.211 201.533L143.595 201.473C143.625 200.815 143.655 200.157 143.715 199.468L145.331 199.588C145.271 200.246 145.241 200.905 145.211 201.533ZM145.54 197.703L143.924 197.493C144.014 196.835 144.104 196.177 144.224 195.518L145.84 195.788C145.72 196.446 145.6 197.074 145.54 197.703ZM146.199 193.932L144.613 193.573C144.762 192.915 144.912 192.287 145.092 191.628L146.677 192.047C146.468 192.676 146.318 193.304 146.199 193.932ZM147.156 190.222L145.6 189.743C145.78 189.115 145.989 188.486 146.229 187.858L147.755 188.397C147.545 188.995 147.366 189.594 147.156 190.222ZM148.443 186.571L146.917 185.973C147.156 185.374 147.426 184.746 147.665 184.147L149.161 184.806C148.922 185.374 148.682 185.973 148.443 186.571ZM149.999 183.04L148.533 182.322C148.802 181.724 149.101 181.125 149.43 180.557L150.867 181.305C150.538 181.903 150.268 182.472 149.999 183.04ZM151.764 179.629L150.358 178.821C150.687 178.252 151.016 177.684 151.375 177.115L152.782 177.953C152.423 178.522 152.094 179.06 151.764 179.629ZM153.769 176.337L152.393 175.44C152.752 174.901 153.111 174.333 153.5 173.794L154.847 174.722C154.488 175.26 154.128 175.799 153.769 176.337ZM155.984 173.136L154.667 172.178C155.056 171.669 155.445 171.131 155.864 170.592L157.151 171.58C156.732 172.118 156.343 172.627 155.984 173.136ZM158.318 170.053L157.031 169.036C157.45 168.527 157.869 168.019 158.288 167.51L159.545 168.557C159.156 169.066 158.737 169.545 158.318 170.053ZM160.831 167.091L159.604 166.014C160.023 165.505 160.472 165.026 160.921 164.548L162.118 165.655C161.669 166.104 161.25 166.612 160.831 167.091ZM163.435 164.218L162.238 163.111C162.687 162.632 163.135 162.154 163.584 161.675L164.751 162.812C164.302 163.261 163.854 163.74 163.435 164.218ZM166.128 161.406L164.961 160.268C165.41 159.79 165.888 159.341 166.367 158.892L167.504 160.059C167.055 160.478 166.577 160.957 166.128 161.406ZM168.911 158.683L167.774 157.516L168.103 157.186C168.462 156.857 168.821 156.498 169.18 156.169L170.287 157.366C169.928 157.695 169.569 158.054 169.21 158.383L168.911 158.683ZM171.753 155.989L170.646 154.792C171.125 154.344 171.604 153.895 172.083 153.476L173.19 154.673C172.711 155.122 172.232 155.57 171.753 155.989ZM174.626 153.356L173.519 152.159C173.998 151.71 174.476 151.291 174.985 150.843L176.092 152.039C175.584 152.488 175.105 152.937 174.626 153.356ZM177.529 150.753L176.451 149.526L177.918 148.209L178.995 149.436L177.529 150.753ZM180.431 148.12L179.354 146.923C179.833 146.474 180.312 146.055 180.79 145.606L181.897 146.803C181.389 147.252 180.91 147.701 180.431 148.12ZM183.334 145.486L182.227 144.289C182.705 143.84 183.184 143.422 183.663 142.973L184.77 144.17C184.291 144.618 183.813 145.067 183.334 145.486ZM186.206 142.823L185.099 141.626C185.578 141.177 186.057 140.728 186.506 140.28L187.643 141.447C187.164 141.925 186.685 142.374 186.206 142.823ZM189.049 140.13L187.912 138.963C188.391 138.514 188.84 138.065 189.289 137.586L190.456 138.753C190.007 139.202 189.528 139.651 189.049 140.13Z" fill="#373F44"/>
<path d="M61.0959 218.2C60.9463 217.572 60.7967 216.944 60.6172 216.315L62.2031 215.926C62.3527 216.555 62.5323 217.183 62.6819 217.841L61.0959 218.2ZM60.1384 214.43C59.9589 213.772 59.7793 213.173 59.5998 212.575L61.1558 212.126C61.3353 212.724 61.5149 213.353 61.6944 214.041L60.1384 214.43ZM59.0312 210.719C58.8218 210.091 58.6123 209.493 58.4028 208.894L59.9289 208.326C60.1384 208.924 60.3778 209.552 60.5872 210.211L59.0312 210.719ZM57.6847 207.129C57.4453 206.53 57.176 205.962 56.9067 205.393L58.3729 204.675C58.6721 205.273 58.9414 205.872 59.2108 206.5L57.6847 207.129ZM56.0089 203.687C55.7097 203.119 55.3806 202.58 55.0215 202.042L56.398 201.174C56.757 201.713 57.0862 202.311 57.4153 202.909L56.0089 203.687ZM53.9741 200.486C53.5851 199.977 53.1961 199.468 52.7772 199.019L54.0041 197.942C54.4529 198.451 54.8719 198.96 55.2609 199.528L53.9741 200.486ZM51.4606 197.643C51.0117 197.224 50.5329 196.775 50.0542 196.386L51.1015 195.129C51.6401 195.548 52.1488 196.027 52.6276 196.476L51.4606 197.643ZM48.558 195.249C48.0493 194.89 47.5107 194.561 46.972 194.202L47.8099 192.795C48.4084 193.154 48.947 193.513 49.4856 193.902L48.558 195.249ZM45.2963 193.274C44.7577 192.975 44.1592 192.706 43.5907 192.436L44.2789 190.97C44.9073 191.269 45.5058 191.539 46.0743 191.868L45.2963 193.274ZM41.8252 191.658C41.2566 191.419 40.6582 191.179 40.0298 190.94L40.5983 189.414C41.2267 189.653 41.8551 189.893 42.4536 190.132L41.8252 191.658ZM38.2044 190.282C37.606 190.072 36.9776 189.863 36.3492 189.683L36.8579 188.127C37.4863 188.337 38.1147 188.546 38.7431 188.756L38.2044 190.282ZM34.4939 189.085C33.8655 188.905 33.2371 188.696 32.6387 188.516L33.1175 186.96C33.7458 187.14 34.3742 187.349 35.0026 187.529L34.4939 189.085Z" fill="#373F44"/>
<path d="M153.088 16.9488C182.862 28.9011 204.577 58.7059 206.809 90.6512C207.484 100.3 206.406 110.405 201.484 118.739C196.561 127.073 187.196 133.256 177.526 132.376C169.968 131.68 163.456 127.019 157.357 122.52L85.6566 69.6368C79.3839 65.0189 73.0022 60.2706 68.5373 53.9032C64.8673 48.6551 60.9142 38.8216 64.2684 32.5194C67.1543 27.0865 76.4326 22.9793 81.6926 20.3606C95.7759 13.377 111.451 10.2071 127.148 11.1682C136.048 11.7012 144.806 13.6528 153.088 16.9488Z" fill="#DAEBFA"/>
<path d="M195.015 87.4458C194.017 85.9885 192.81 84.6852 191.433 83.5776C193.262 82.0489 194.67 80.0806 195.526 77.8582C196.381 75.6359 196.655 73.2328 196.322 70.8755C195.9 68.3944 194.935 66.0367 193.495 63.9707C192.055 61.9047 190.176 60.1812 187.991 58.9232C184.511 56.9228 180.507 56.0176 176.502 56.3263C178.256 53.3028 178.914 49.7691 178.364 46.3189C177.592 41.992 175.423 38.0353 172.19 35.0511C168.978 32.0852 165.153 29.8596 160.984 28.5317C156.452 26.9118 151.596 26.4049 146.827 27.0539C142.184 27.7099 137.917 29.9618 134.76 33.4212C134.329 33.281 133.889 33.1685 133.443 33.0844C133.479 30.6036 132.681 28.1822 131.177 26.2064C129.467 24.0028 127.268 22.2249 124.752 21.0125C120.844 18.94 116.423 18.0275 112.011 18.383C107.595 18.7594 103.502 20.8461 100.609 24.1962C99.3808 25.679 98.4865 27.408 97.9867 29.2658C97.4869 31.1237 97.3933 33.067 97.7122 34.9642C94.0805 32.8939 89.7821 32.3207 85.733 33.3669C83.4869 33.9709 81.4214 35.1103 79.7141 36.6869C78.0069 38.2635 76.7089 40.2303 75.9319 42.4181C75.2257 44.648 75.094 47.0194 75.5489 49.3135C76.0038 51.6076 77.0307 53.7504 78.5347 55.5439C78.7452 55.7902 78.963 56.0293 79.1881 56.2611C77.2848 57.7249 75.7863 59.648 74.8337 61.8493C73.881 64.0506 73.5057 66.4576 73.743 68.8436C74.1161 71.4281 75.1496 73.8732 76.7441 75.9437C78.3386 78.0142 80.4404 79.6403 82.8472 80.6656L83.359 80.872C85.5463 81.7439 87.9764 81.7941 90.198 81.0132C89.8421 82.7842 89.8719 84.6107 90.2852 86.3692C90.6986 88.1277 91.4859 89.777 92.5938 91.2053C94.447 93.5529 96.9328 95.3245 99.7595 96.3122C101.059 96.7844 102.413 97.0946 103.789 97.2358C106.5 97.5834 109.255 97.1498 111.728 95.9863C112.72 95.5068 113.631 94.8763 114.429 94.1173C114.522 97.094 115.467 99.982 117.151 102.441C118.902 104.941 121.386 106.839 124.262 107.873C125.367 108.277 126.521 108.532 127.693 108.634C127.746 108.713 127.813 108.783 127.889 108.84C130.889 111.3 133.374 114.326 135.2 117.746C137.025 121.166 138.157 124.911 138.528 128.768V129.094C138.521 130.415 138.859 131.714 139.508 132.865C140.07 133.724 140.895 134.38 141.861 134.734C142.909 135.126 144.058 135.16 145.128 134.831C146.73 134.232 148.061 133.074 148.874 131.572C149.124 131.191 149.342 130.8 149.571 130.42C149.902 129.842 150.266 129.283 150.66 128.747C152.427 130.381 154.515 131.631 156.791 132.419L157.434 132.647C160.232 133.617 163.235 133.838 166.146 133.288C169.417 132.583 172.284 130.634 174.139 127.856C175.902 125.169 176.55 121.904 175.947 118.75H176.11C177.716 118.363 179.177 117.523 180.319 116.331C181.46 115.138 182.233 113.643 182.546 112.024C185.303 112.519 188.147 112.035 190.583 110.655C192.919 109.294 194.824 107.306 196.083 104.918C197.496 102.179 198.143 99.1105 197.956 96.0355C197.768 92.9605 196.752 89.993 195.015 87.4458ZM147.034 130.442C146.464 131.523 145.531 132.369 144.398 132.832C143.84 132.999 143.244 132.99 142.69 132.807C142.137 132.625 141.654 132.277 141.305 131.811C140.864 130.946 140.64 129.988 140.652 129.018V128.681C139.921 120.986 136.374 113.829 130.687 108.58C132.951 108.243 135.077 107.288 136.829 105.82C136.853 106.897 137.029 107.965 137.352 108.993C138.477 112.198 140.713 114.896 143.658 116.599C144.455 117.078 145.298 117.478 146.173 117.794C146.435 117.892 146.685 117.968 146.935 118.044C146.608 119.621 146.633 121.251 147.009 122.818C147.386 124.384 148.104 125.848 149.114 127.106C148.565 127.806 148.076 128.551 147.654 129.333L147.034 130.442ZM194.122 103.929C193.055 105.989 191.418 107.701 189.407 108.862C187.393 110.003 185.037 110.388 182.764 109.949H182.612C182.452 107.441 181.37 105.081 179.573 103.321C180.487 102.334 181.152 101.144 181.512 99.8494C181.872 98.5547 181.917 97.193 181.642 95.8776C181.577 95.6057 181.41 95.3693 181.174 95.2175C180.939 95.0658 180.654 95.0103 180.379 95.0627C180.245 95.0859 180.117 95.136 180.003 95.21C179.89 95.284 179.792 95.3803 179.717 95.4931C179.641 95.6059 179.59 95.7329 179.565 95.8662C179.54 95.9996 179.543 96.1365 179.573 96.2688C179.839 97.5696 179.695 98.9206 179.161 100.136C178.626 101.352 177.728 102.374 176.589 103.06C175.386 103.714 174.019 104.006 172.653 103.902C171.287 103.798 169.98 103.302 168.89 102.473C168.67 102.302 168.393 102.221 168.116 102.247C167.838 102.273 167.581 102.405 167.398 102.614C167.313 102.72 167.249 102.842 167.212 102.973C167.175 103.104 167.165 103.241 167.182 103.376C167.2 103.511 167.244 103.641 167.313 103.759C167.382 103.876 167.474 103.978 167.583 104.06C168.303 104.628 169.108 105.079 169.968 105.396C171.217 105.86 172.551 106.049 173.88 105.951C175.208 105.854 176.5 105.472 177.667 104.831L177.951 104.657C178.873 105.528 179.572 106.608 179.989 107.805C180.406 109.002 180.528 110.281 180.346 111.535C180.112 112.775 179.527 113.921 178.661 114.84C177.794 115.758 176.683 116.41 175.457 116.718C174.222 116.992 172.934 116.888 171.76 116.419C170.586 115.95 169.582 115.137 168.879 114.089C168.736 113.849 168.505 113.673 168.236 113.598C167.966 113.523 167.678 113.555 167.431 113.687C167.311 113.75 167.206 113.837 167.121 113.942C167.036 114.048 166.974 114.169 166.938 114.3C166.903 114.43 166.894 114.566 166.913 114.7C166.932 114.834 166.979 114.962 167.05 115.077C168.031 116.651 169.528 117.837 171.286 118.435C172.079 118.718 172.907 118.89 173.747 118.946C174.306 121.648 173.77 124.461 172.255 126.769C170.688 129.081 168.283 130.698 165.547 131.278C163.017 131.751 160.407 131.553 157.978 130.702C155.19 129.858 152.711 128.219 150.845 125.987C150 124.96 149.394 123.758 149.072 122.469C148.75 121.18 148.719 119.835 148.983 118.533C150.658 118.767 152.365 118.595 153.96 118.033C157.673 116.664 159.917 112.883 159.067 109.405C158.997 109.133 158.825 108.898 158.585 108.75C158.345 108.602 158.057 108.553 157.782 108.612C157.648 108.636 157.521 108.688 157.408 108.763C157.295 108.839 157.198 108.936 157.125 109.051C157.051 109.165 157.002 109.293 156.98 109.427C156.958 109.561 156.964 109.698 156.998 109.829C157.597 112.296 155.909 115.11 153.165 116.11C151.75 116.539 150.258 116.653 148.794 116.445C147.33 116.236 145.93 115.71 144.692 114.904C142.194 113.459 140.297 111.169 139.345 108.449C138.902 107.158 138.769 105.781 138.959 104.43C139.148 103.078 139.653 101.79 140.434 100.669C140.514 100.559 140.571 100.434 140.601 100.301C140.631 100.168 140.634 100.031 140.61 99.8967C140.585 99.7627 140.534 99.6351 140.459 99.5214C140.384 99.4077 140.286 99.3103 140.173 99.2351C139.946 99.0744 139.666 99.0062 139.391 99.0446C139.116 99.083 138.865 99.225 138.692 99.4416C138.253 100.041 137.888 100.69 137.603 101.376L137.505 101.528C136.623 103.142 135.309 104.478 133.708 105.388C132.108 106.298 130.285 106.745 128.444 106.678C126.539 106.589 124.68 106.061 123.014 105.136C121.347 104.21 119.918 102.912 118.839 101.343C117.791 99.7772 117.072 98.0161 116.723 96.1656C116.375 94.3151 116.406 92.4135 116.813 90.5751C116.846 90.4284 116.846 90.2763 116.813 90.1296L116.879 89.9449C116.936 89.6746 116.888 89.3928 116.744 89.1566C116.601 88.9205 116.372 88.7478 116.106 88.6736C115.84 88.611 115.561 88.6499 115.323 88.7827C115.085 88.9154 114.906 89.1324 114.821 89.3908C114.511 90.4306 113.985 91.3937 113.278 92.2174C112.571 93.0412 111.697 93.707 110.715 94.1717C108.616 95.1736 106.272 95.5509 103.963 95.2583C102.087 95.0802 100.265 94.5301 98.6039 93.64C96.9433 92.75 95.4776 91.5381 94.2927 90.0753C93.1721 88.6658 92.4441 86.9863 92.1821 85.2063C91.9202 83.4264 92.1335 81.6089 92.8007 79.9375C92.8007 79.9375 92.8007 79.8723 92.8007 79.8397C93.4831 80.2831 94.2138 80.6476 94.9788 80.9263C97.4375 81.7425 100.072 81.8776 102.602 81.3175C102.736 81.2932 102.864 81.2418 102.977 81.1665C103.091 81.0913 103.188 80.9937 103.262 80.8798C103.336 80.7659 103.387 80.638 103.41 80.504C103.433 80.3701 103.429 80.2327 103.397 80.1005C103.329 79.8284 103.159 79.5928 102.922 79.4429C102.684 79.2931 102.398 79.2406 102.123 79.2965C99.9898 79.7771 97.7666 79.6757 95.6866 79.0031C94.7057 78.6822 93.8038 78.1582 93.04 77.4653C92.2762 76.7725 91.6677 75.9265 91.2543 74.9827C90.895 74.1093 90.8067 73.1484 91.0008 72.2243C91.195 71.3003 91.6627 70.4557 92.3433 69.7998C92.447 69.7125 92.5319 69.6051 92.5927 69.4841C92.6536 69.3631 92.6891 69.231 92.6973 69.0959C92.7054 68.9607 92.686 68.8253 92.6401 68.6979C92.5942 68.5705 92.5229 68.4537 92.4305 68.3546C92.2438 68.1451 91.9832 68.0157 91.7031 67.9935C91.4231 67.9712 91.1452 68.0578 90.9276 68.2351C89.9153 69.1486 89.2085 70.3502 88.9027 71.6774C88.5969 73.0047 88.7069 74.3936 89.2179 75.6564C89.6079 76.641 90.1847 77.5413 90.9167 78.3077C90.6826 78.3073 90.4555 78.388 90.2742 78.5359C88.4338 80.0571 85.5044 79.6224 83.5441 78.8292C81.4789 77.9564 79.6753 76.5649 78.3089 74.7903C76.9425 73.0157 76.0599 70.9183 75.7468 68.7023C75.5322 66.5905 75.8852 64.4597 76.7694 62.529C77.6537 60.5983 79.0373 58.9374 80.778 57.7171C81.9213 58.5577 83.1791 59.231 84.5134 59.7164C86.7087 60.5211 89.0703 60.7676 91.385 60.4335C91.5194 60.4152 91.6487 60.3699 91.765 60.3002C91.8813 60.2306 91.9823 60.1381 92.0617 60.0283C92.1411 59.9186 92.1974 59.7939 92.2271 59.6619C92.2568 59.5298 92.2593 59.3931 92.2344 59.26C92.1789 58.9845 92.0186 58.7412 91.7871 58.5812C91.5556 58.4211 91.271 58.3568 90.993 58.4016C88.9792 58.6632 86.9319 58.4252 85.0324 57.7087C83.1328 56.9923 81.4397 55.8196 80.1029 54.2944C78.83 52.7663 77.9633 50.9431 77.5827 48.9929C77.202 47.0426 77.3197 45.0281 77.9248 43.1352C78.5922 41.256 79.7086 39.5674 81.1773 38.2156C82.646 36.8638 84.4227 35.8895 86.3538 35.3771C88.359 34.8612 90.455 34.8033 92.4857 35.2078C94.5164 35.6122 96.4295 36.4687 98.0824 37.7132C98.3025 37.8802 98.578 37.9574 98.8531 37.9291C99.1281 37.9009 99.3821 37.7693 99.5635 37.5611C99.6827 37.4064 99.7579 37.2224 99.7813 37.0287C99.9365 36.8998 100.048 36.7263 100.101 36.5318C100.153 36.3373 100.144 36.1314 100.075 35.9421C99.5497 34.1571 99.4735 32.2703 99.8534 30.4489C100.233 28.6275 101.058 26.9277 102.253 25.5001C104.791 22.5685 108.381 20.7499 112.25 20.4367C116.269 20.093 120.302 20.9196 123.859 22.8163C126.074 23.8776 128.012 25.4359 129.522 27.369C130.747 28.9605 131.402 30.9151 131.384 32.9214C130.706 32.9343 130.031 33.018 129.37 33.1713C127.86 33.5258 126.46 34.244 125.292 35.2631C124.125 36.2821 123.225 37.571 122.672 39.0171C122.593 39.2782 122.615 39.5595 122.734 39.8051C122.853 40.0507 123.061 40.2426 123.315 40.3427C123.575 40.4339 123.861 40.4228 124.114 40.3119C124.366 40.2009 124.567 39.9983 124.676 39.7451C125.119 38.6183 125.827 37.6144 126.741 36.8181C127.654 36.0219 128.746 35.4568 129.925 35.1706C131.142 34.9028 132.404 34.9153 133.616 35.2071C134.827 35.499 135.956 36.0625 136.917 36.8548C137.847 37.6528 138.575 38.6601 139.038 39.7936C139.502 40.9271 139.69 42.1544 139.585 43.3743C139.56 43.6592 139.65 43.9422 139.833 44.1619C140.017 44.3815 140.28 44.5202 140.565 44.5478C140.7 44.5692 140.839 44.5628 140.972 44.5291C141.105 44.4954 141.23 44.4351 141.339 44.3517C141.448 44.2684 141.539 44.1638 141.606 44.0443C141.673 43.9249 141.715 43.793 141.73 43.6568C141.872 42.1049 141.636 40.5418 141.042 39.1003C140.449 37.6588 139.515 36.3816 138.321 35.3771C137.878 34.9967 137.401 34.6584 136.895 34.3666C139.699 31.5273 143.361 29.687 147.317 29.1293C151.721 28.5424 156.201 29.0156 160.385 30.5092C164.251 31.7362 167.798 33.799 170.774 36.5506C173.672 39.2164 175.618 42.753 176.317 46.6231C176.615 48.4063 176.534 50.2319 176.08 51.9819C175.626 53.7319 174.809 55.3674 173.682 56.7826H173.616C172.038 55.2309 170.041 54.1721 167.868 53.7359C165.696 53.2998 163.444 53.5052 161.387 54.327C161.262 54.3807 161.15 54.4592 161.057 54.5575C160.964 54.6558 160.891 54.772 160.845 54.899C160.798 55.026 160.777 55.1612 160.784 55.2963C160.791 55.4314 160.826 55.5637 160.886 55.6852C161.008 55.9351 161.223 56.1284 161.484 56.2255C161.745 56.3225 162.034 56.3158 162.291 56.2067C163.991 55.5413 165.85 55.3926 167.635 55.7793C169.42 56.166 171.05 57.0708 172.32 58.3799C173.52 59.6918 174.278 61.346 174.487 63.1098C174.696 64.8736 174.346 66.6584 173.486 68.2134C173.416 68.3313 173.372 68.4619 173.354 68.5974C173.336 68.733 173.346 68.8707 173.382 69.0024C173.419 69.1341 173.481 69.2572 173.567 69.3643C173.652 69.4714 173.757 69.5604 173.878 69.6259L174.052 69.7129C174.282 69.7935 174.533 69.7944 174.764 69.7156C174.995 69.6368 175.193 69.4827 175.326 69.2782C176.259 67.6383 176.728 65.776 176.682 63.8907C176.636 62.0054 176.077 60.1681 175.065 58.5755C179.142 57.8942 183.33 58.6348 186.924 60.6726C188.834 61.7678 190.478 63.271 191.737 65.0743C192.997 66.8777 193.841 68.9366 194.209 71.1037C194.516 73.2108 194.252 75.3613 193.446 77.3327C192.64 79.3041 191.321 81.0249 189.625 82.3171C186.382 80.2503 182.579 79.2333 178.735 79.4051C178.597 79.4076 178.462 79.4382 178.337 79.4951C178.212 79.552 178.1 79.634 178.008 79.7359C177.916 79.8378 177.846 79.9575 177.802 80.0875C177.759 80.2175 177.743 80.3551 177.755 80.4917C177.782 80.7607 177.908 81.0099 178.11 81.1907C178.311 81.3715 178.573 81.471 178.844 81.4696C181.631 81.3711 184.398 81.9684 186.895 83.2075C189.392 84.4465 191.539 86.2881 193.142 88.5649C194.651 90.812 195.534 93.4184 195.703 96.1178C195.871 98.8172 195.318 101.513 194.101 103.929H194.122Z" fill="white"/>
<path d="M125.754 55.8047C126.246 57.0082 126.383 58.3274 126.148 59.6061C125.912 60.8848 125.314 62.0694 124.425 63.0195C124.329 63.1174 124.255 63.2337 124.206 63.3613C124.158 63.489 124.136 63.6252 124.142 63.7616C124.148 63.8981 124.182 64.0318 124.242 64.1546C124.302 64.2774 124.386 64.3866 124.49 64.4755C124.594 64.572 124.716 64.646 124.85 64.6928C125.037 64.7532 125.237 64.7619 125.429 64.7179C125.621 64.6739 125.797 64.5789 125.939 64.4429C127.107 63.2223 127.894 61.6887 128.203 60.0293C128.513 58.3699 128.331 56.6566 127.681 55.0984C126.977 53.5118 125.857 52.1443 124.438 51.1402C123.02 50.1362 121.356 49.5328 119.622 49.3939C117.914 49.2707 116.206 49.628 114.691 50.4251C113.176 51.2222 111.915 52.4271 111.052 53.9032C110.937 54.1501 110.919 54.4312 111.001 54.6908C111.084 54.9504 111.261 55.1696 111.498 55.3048C111.743 55.4341 112.028 55.4656 112.295 55.3929C112.562 55.3203 112.791 55.1489 112.936 54.9137C113.603 53.7949 114.565 52.8802 115.717 52.269C116.869 51.6579 118.167 51.3737 119.47 51.4475C120.813 51.5445 122.105 52.0002 123.21 52.7668C124.316 53.5334 125.194 54.5827 125.754 55.8047Z" fill="white"/>
<path d="M160.036 79.742C159.768 79.6874 159.49 79.7354 159.256 79.8763C159.022 80.0172 158.849 80.2408 158.773 80.5026C158.726 80.7724 158.783 81.0499 158.933 81.2795C159.082 81.5092 159.313 81.6741 159.579 81.7413C161.316 82.1618 162.92 83.0124 164.241 84.2146C165.561 85.4167 166.557 86.9316 167.137 88.6193C167.632 90.2709 167.649 92.0284 167.187 93.6893C166.724 95.3503 165.801 96.8471 164.523 98.0073C163.164 99.127 161.513 99.8372 159.763 100.055C158.014 100.272 156.239 99.9878 154.646 99.2351C154.396 99.1179 154.11 99.0998 153.847 99.1845C153.585 99.2692 153.364 99.4505 153.23 99.6915C153.125 99.9424 153.119 100.223 153.212 100.479C153.304 100.734 153.49 100.946 153.731 101.071C154.068 101.234 154.417 101.376 154.82 101.506C156.695 102.177 158.713 102.351 160.675 102.01C162.637 101.669 164.478 100.825 166.015 99.5611C167.606 98.1607 168.759 96.3335 169.339 94.2972C169.918 92.2609 169.898 90.1014 169.282 88.076C168.587 86.0122 167.371 84.1616 165.752 82.7021C164.133 81.2425 162.164 80.2232 160.036 79.742Z" fill="white"/>
<path d="M153.022 90.3252C151.75 90.8708 150.373 91.1284 148.989 91.0796C147.605 91.0307 146.249 90.6766 145.018 90.0427C143.804 89.4017 142.752 88.4949 141.939 87.3903C141.126 86.2858 140.574 85.012 140.325 83.6645C140.14 82.5204 140.195 81.3506 140.485 80.2286C140.776 79.1066 141.296 78.0568 142.013 77.1451C143.087 78.1295 144.345 78.8937 145.715 79.3943C146.51 79.6795 147.336 79.8692 148.176 79.9593C151.204 80.2853 154.95 78.9379 155.963 75.7977C156.03 75.5343 155.995 75.2553 155.866 75.016C155.737 74.7766 155.523 74.5942 155.266 74.5047C155.004 74.4256 154.722 74.4477 154.476 74.5664C154.23 74.6852 154.038 74.892 153.937 75.1458C153.273 77.1885 150.583 78.1556 148.362 77.9165C147.034 77.7684 145.76 77.3155 144.637 76.5935C143.515 75.8715 142.576 74.8999 141.893 73.7549C141.245 72.6227 140.885 71.3497 140.843 70.0468C140.801 68.7438 141.079 67.4505 141.653 66.2793C141.761 66.0272 141.769 65.7437 141.676 65.4858C141.583 65.2279 141.396 65.0145 141.152 64.8885C140.904 64.7703 140.619 64.7506 140.357 64.8333C140.094 64.9159 139.872 65.0949 139.737 65.334C139.013 66.797 138.664 68.4155 138.719 70.0458C138.774 71.6761 139.232 73.2675 140.052 74.6785C140.216 74.9626 140.394 75.2383 140.586 75.5043C138.967 77.4017 138.082 79.8146 138.092 82.3063C136.716 83.3993 135.034 84.0387 133.278 84.136C131.522 84.2333 129.78 83.7838 128.291 82.8496C126.797 81.8603 125.676 80.402 125.106 78.7056C124.536 77.0091 124.549 75.1713 125.144 73.4833C125.227 73.2235 125.21 72.9417 125.095 72.6941C124.98 72.4465 124.776 72.2511 124.523 72.1468C124.265 72.0504 123.98 72.0551 123.726 72.1599C123.471 72.2648 123.266 72.462 123.151 72.7118C122.649 74.0308 122.455 75.4467 122.585 76.8517C121.319 78.2645 119.611 79.2069 117.739 79.5247C115.817 79.8336 113.847 79.5054 112.13 78.5902C111.217 78.1727 110.494 77.4281 110.105 76.504C110.026 76.235 109.846 76.0068 109.602 75.8671C109.359 75.7273 109.07 75.6869 108.798 75.7542C108.665 75.7844 108.54 75.8413 108.43 75.9214C108.32 76.0015 108.227 76.1031 108.158 76.2201C108.089 76.337 108.044 76.4668 108.027 76.6016C108.009 76.7363 108.02 76.8732 108.057 77.0038C108.322 77.748 108.733 78.432 109.266 79.016C109.799 79.5999 110.443 80.0721 111.161 80.4048C111.632 80.6551 112.119 80.8729 112.62 81.0567C114.396 81.7022 116.31 81.8781 118.174 81.5674C120 81.2718 121.715 80.4953 123.14 79.3182C123.86 81.4693 125.278 83.3198 127.169 84.5772C127.801 84.9855 128.477 85.3209 129.184 85.5769C130.685 86.1207 132.287 86.3287 133.877 86.186C135.467 86.0432 137.007 85.5534 138.386 84.7511C138.78 86.2689 139.487 87.6879 140.462 88.9172C141.437 90.1465 142.659 91.159 144.049 91.8899C144.49 92.1277 144.949 92.3311 145.421 92.4984C148.191 93.5056 151.242 93.4161 153.948 92.2485C154.073 92.1937 154.185 92.1142 154.278 92.0146C154.371 91.915 154.443 91.7975 154.489 91.6693C154.535 91.5411 154.554 91.4049 154.545 91.2691C154.537 91.1333 154.5 91.0007 154.438 90.8794C154.321 90.621 154.108 90.4184 153.843 90.3149C153.579 90.2114 153.284 90.2151 153.022 90.3252Z" fill="white"/>
<path d="M138.528 54.7181C138.699 54.9411 138.95 55.0894 139.228 55.1319C139.506 55.1745 139.79 55.108 140.02 54.9463C141.751 53.8239 143.797 53.2857 145.858 53.4109C147.918 53.5361 149.884 54.3181 151.466 55.6417C152.959 57.0079 153.945 58.8382 154.264 60.8348C154.582 62.8314 154.214 64.8767 153.219 66.6379C153.147 66.7541 153.1 66.8835 153.08 67.0185C153.06 67.1534 153.067 67.291 153.102 67.423C153.136 67.555 153.197 67.6787 153.281 67.7865C153.365 67.8943 153.47 67.9841 153.589 68.0504L153.785 68.1373C154.01 68.2147 154.255 68.2162 154.481 68.1416C154.707 68.067 154.903 67.9205 155.037 67.7244C156.3 65.5573 156.774 63.0211 156.377 60.5457C155.98 58.0703 154.737 55.808 152.859 54.1422C150.916 52.4799 148.481 51.4964 145.925 51.3415C143.37 51.1865 140.834 51.8686 138.702 53.2838C138.594 53.3647 138.503 53.4667 138.435 53.5836C138.368 53.7005 138.324 53.8298 138.308 53.9638C138.292 54.0979 138.303 54.2338 138.341 54.3635C138.378 54.4931 138.442 54.6137 138.528 54.7181Z" fill="white"/>
<path d="M204.003 81.0067C217.26 81.0067 228.007 70.2601 228.007 57.0034C228.007 43.7467 217.26 33 204.003 33C190.747 33 180 43.7467 180 57.0034C180 70.2601 190.747 81.0067 204.003 81.0067Z" fill="#7AC0FF"/>
<path d="M219.274 52.2662H208.734V41.7322C208.735 41.5113 208.692 41.2924 208.608 41.0881C208.523 40.8838 208.4 40.6983 208.244 40.5421C208.087 40.3858 207.902 40.2621 207.697 40.178C207.493 40.0939 207.274 40.051 207.053 40.0519H200.946C200.501 40.0519 200.073 40.2289 199.758 40.544C199.443 40.8592 199.266 41.2866 199.266 41.7322V52.2662H188.725C188.279 52.2679 187.852 52.4465 187.537 52.7627C187.222 53.0788 187.045 53.5069 187.045 53.9532V60.0266C187.045 60.4729 187.222 60.9009 187.537 61.2171C187.852 61.5333 188.279 61.7119 188.725 61.7136H199.266V72.2746C199.266 72.7202 199.443 73.1476 199.758 73.4627C200.073 73.7779 200.501 73.9549 200.946 73.9549H207.053C207.274 73.9558 207.493 73.9129 207.697 73.8288C207.902 73.7447 208.087 73.6209 208.244 73.4647C208.4 73.3085 208.523 73.1229 208.608 72.9187C208.692 72.7144 208.735 72.4955 208.734 72.2746V61.7406H219.274C219.496 61.7406 219.715 61.697 219.919 61.6121C220.123 61.5272 220.309 61.4028 220.465 61.2461C220.621 61.0894 220.745 60.9033 220.829 60.6987C220.913 60.494 220.956 60.2748 220.955 60.0536V53.9802C220.959 53.7567 220.919 53.5346 220.837 53.3268C220.754 53.119 220.631 52.9298 220.475 52.7702C220.318 52.6105 220.131 52.4837 219.925 52.3972C219.719 52.3107 219.498 52.2661 219.274 52.2662Z" fill="white"/>
</svg>
