<svg width="50" height="50" viewBox="0 0 50 50" fill="none" xmlns="http://www.w3.org/2000/svg">
<path d="M50 24.9952C49.9409 28.4077 49.9103 31.8202 49.8107 35.2315C49.7275 38.0864 49.2044 40.8569 47.702 43.3382C45.6819 46.6795 42.6901 48.7314 38.8809 49.3887C36.6321 49.7797 34.3198 49.9145 32.0328 49.9496C27.0362 50.0273 22.0375 50.0054 17.0409 49.9496C14.4409 49.92 11.8299 49.8225 9.32724 48.957C4.69618 47.3554 1.85648 44.1248 0.675737 39.401C0.0738747 36.9909 0.0443295 34.5206 0.0268208 32.0612C-0.00929094 27.0778 -0.0136688 22.0921 0.0432346 17.1098C0.0727805 14.5256 0.160324 11.9303 1.00074 9.44135C2.58091 4.75262 5.81564 1.87475 10.5813 0.677368C12.9887 0.0737491 15.4564 0.0452662 17.9131 0.0277382C22.9096 -0.0084132 27.9073 -0.0149862 32.9049 0.0430751C35.505 0.073749 38.116 0.170153 40.6186 1.0356C45.2497 2.63612 48.0883 5.86783 49.2635 10.5905C49.8665 13.0006 49.8709 15.4699 49.9201 17.9304C49.9639 20.2846 49.93 22.641 49.93 24.9952H50ZM24.9997 4.56419C22.4829 4.56419 19.966 4.51709 17.4491 4.58063C15.7223 4.62335 13.9846 4.71428 12.2796 4.96843C8.49338 5.53371 5.87583 8.08074 5.03979 11.835C4.54079 14.0797 4.58347 16.3682 4.53313 18.6424C4.46528 21.6711 4.45872 24.702 4.51343 27.7351C4.56596 30.8167 4.57362 33.9093 4.8636 36.9723C5.25646 41.1155 7.64093 43.9922 11.796 44.9409C14.0546 45.4569 16.3603 45.401 18.6506 45.4536C21.6957 45.5267 24.7422 45.5336 27.7902 45.4744C30.8542 45.4219 33.9182 45.4186 36.9637 45.1217C41.0552 44.7207 43.9321 42.3829 44.8929 38.2124C45.4138 35.9535 45.3613 33.6442 45.4127 31.3524C45.4806 28.285 45.4871 25.2176 45.4324 22.1502C45.381 19.1058 45.3055 16.0581 45.0899 13.0225C44.9455 10.9674 44.1849 9.09079 42.7273 7.5549C40.8845 5.60711 38.5077 4.85998 35.935 4.74057" fill="#071E2E"/>
<path d="M24.9592 37.8348C17.9809 37.8436 12.2314 32.1382 12.1275 25.2837C12.0181 17.9986 17.8879 12.2473 24.7666 12.1454C31.9047 12.0435 37.664 17.8135 37.8106 24.7074C37.9638 31.9706 32.0393 37.9126 24.9592 37.8348ZM33.2933 25.0076C33.2999 20.4471 29.5432 16.6753 24.9844 16.6687C20.4255 16.6621 16.6601 20.4208 16.6524 24.9835C16.6447 29.5463 20.4004 33.3093 24.9603 33.3246C29.5202 33.34 33.2857 29.5715 33.2933 25.0076Z" fill="#071E2E"/>
<path d="M41.2994 11.6358C41.3035 12.0328 41.2293 12.4266 41.081 12.7948C40.9327 13.163 40.7132 13.4982 40.4351 13.7812C40.157 14.0642 39.8258 14.2894 39.4605 14.4438C39.0952 14.5983 38.703 14.679 38.3065 14.6813C36.653 14.6813 35.2632 13.2823 35.2775 11.6446C35.2832 10.8518 35.6011 10.0934 36.162 9.53387C36.723 8.97435 37.4818 8.65891 38.2736 8.65605C39.9884 8.64729 41.295 9.9334 41.2994 11.6358Z" fill="#071E2E"/>
</svg>
