<svg width="286" height="49" viewBox="0 0 286 49" fill="none" xmlns="http://www.w3.org/2000/svg">
<g clip-path="url(#clip0_1_3048)">
<path d="M41.4604 32.1633C41.2788 32.5679 41.0666 32.9578 40.8256 33.3296C38.4815 36.9668 33.8112 38.848 29.8734 38.2447C28.5094 39.8705 26.9864 41.354 25.3274 42.6729C23.9016 43.7856 22.3921 44.785 20.8124 45.6622C19.6785 46.2915 18.5123 46.8598 17.3186 47.3647C17.1765 47.4228 17.0344 47.4853 16.8746 47.5389C15.4548 48.1174 14.0002 48.6054 12.5195 49.0001L12.5772 48.9554L12.737 48.8258L12.9768 48.6337C15.2461 46.8611 17.2535 44.7728 18.939 42.4316C19.7038 41.3406 20.3865 40.1935 20.9811 38.9999C21.2697 38.419 21.5139 37.8873 21.7136 37.4181C21.5703 38.7041 21.2813 39.9694 20.8524 41.1894C20.2749 42.8244 19.4482 44.3591 18.4018 45.7382C22.1576 43.5308 26.3929 40.5549 27.8446 37.6951C26.6093 37.182 25.5441 36.3267 24.7725 35.2286C20.5683 29.2365 16.182 28.6914 16.182 28.6914C12.2753 27.6682 9.18543 30.9971 8.71484 31.5377C16.8213 20.4339 25.8113 34.2545 25.8113 34.2545C26.0954 34.5271 29.2652 37.4628 33.5759 36.5468C34.7331 36.2807 35.8245 35.7807 36.7838 35.0771C37.743 34.3735 38.5503 33.481 39.1563 32.4538C41.2029 28.9506 39.9377 25.3669 39.6447 24.5358C39.2718 23.4813 38.5215 21.3544 36.3906 20.1434C35.0392 19.4277 33.5005 19.1514 31.9866 19.3525C31 19.4549 30.0394 19.7334 29.1498 20.1747C29.9975 19.2798 31.0897 18.6578 32.2885 18.3874C33.1872 18.1955 34.1172 18.2093 35.0099 18.4276C34.9655 17.9539 34.8456 16.1934 36.0132 15.0004C36.2063 14.8048 36.4225 14.6337 36.6569 14.491C36.3594 14.9476 36.1568 15.4602 36.0615 15.9977C35.9661 16.5353 35.9799 17.0868 36.102 17.6188C36.1974 17.9723 36.3472 18.3085 36.5459 18.6153C37.7341 19.2146 38.7967 20.0383 39.6758 21.0416C40.3742 21.8443 40.9489 22.748 41.3805 23.7226C41.7586 24.5786 42.0271 25.4795 42.1796 26.4036C42.5337 28.3523 42.2826 30.3634 41.4604 32.1633V32.1633Z" fill="#1D1D1B"/>
<path d="M60.0215 26.4347C56.7896 33.6109 47.8041 34.2007 46.9961 34.2454C44.8998 34.3419 42.8046 34.0309 40.8252 33.3294C41.0662 32.9576 41.2784 32.5677 41.46 32.1632C44.5625 33.2201 47.9211 33.2405 51.036 32.2213C52.4788 31.7342 55.5243 30.6484 57.6109 27.5339C60.9316 22.5785 58.7385 16.8099 58.6408 16.5775C57.8074 14.5029 56.4047 12.7098 54.5965 11.4076C53.1007 10.3846 51.3979 9.70847 49.6109 9.42817C49.3668 9.38795 49.1226 9.35667 48.8873 9.33433C48.2539 9.25918 47.6152 9.23825 46.9783 9.27177C45.9247 9.31686 44.8808 9.49398 43.8707 9.79904C44.8064 9.29644 45.8055 8.92367 46.8407 8.69089C47.4398 8.55894 48.0485 8.47526 48.6609 8.44066C49.3758 8.40323 50.0926 8.43765 50.8007 8.54343C52.9238 8.86313 54.9097 9.79423 56.5188 11.2244C58.326 12.805 59.6783 14.8451 60.4344 17.1316C60.7007 17.994 61.9527 22.1406 60.0215 26.4347Z" fill="#1D1D1B"/>
<path d="M48.8881 9.31213C48.2546 9.23698 47.616 9.21605 46.9791 9.24957C46.9347 9.0619 46.8858 8.86529 46.8281 8.66868C47.4273 8.53673 48.0359 8.45306 48.6483 8.41846C48.746 8.72677 48.8259 9.03062 48.8881 9.31213Z" fill="#1D1D1B"/>
<path d="M35.9244 31.3231C35.4517 29.4675 34.2861 27.867 32.6703 26.8547C31.8617 26.3613 30.9493 26.0659 30.0066 25.9923C27.0632 25.7912 25.8557 28.088 23.8268 27.7797C22.9034 27.6367 21.7137 26.9351 20.5283 24.5043C21.2963 25.2282 22.495 26.1174 24 26.1666C25.8468 26.2291 26.6637 24.9869 28.3729 24.482C28.3051 24.2401 28.2051 24.0086 28.0754 23.7939C27.6315 23.0789 27.1076 22.9002 26.6592 22.4534C26.1354 21.9395 25.6382 20.9878 25.7713 19.0396C26.0576 20.0149 26.619 20.8857 27.3873 21.5463C28.1864 22.2031 28.7946 22.221 29.3407 22.8868C29.6533 23.2874 29.8513 23.7664 29.9134 24.272C31.451 24.2861 32.9311 24.8626 34.0776 25.894C36.2529 27.9405 35.9688 30.9209 35.9244 31.3231Z" fill="#1D1D1B"/>
<path d="M48.6479 8.41839C48.0355 8.45299 47.4269 8.53666 46.8277 8.66862C46.3838 7.14937 45.6335 5.41565 44.2573 4.58454C41.5536 2.94912 36.8078 2.38164 34.122 6.72041C34.152 5.86374 34.4297 5.0345 34.9211 4.33431C34.8012 4.19132 31.9999 0.907081 27.8179 1.60861C26.7749 1.80621 25.7831 2.21657 24.9035 2.81443C24.024 3.41229 23.2753 4.18499 22.7036 5.08499C24.2746 5.59913 25.6184 6.64831 26.5038 8.05198C24.7508 6.82755 22.7176 6.07111 20.5949 5.85355C16.4573 5.4648 11.7914 7.2298 9.3319 10.9832C8.60506 12.1012 8.09029 13.345 7.8136 14.6517C8.92016 14.673 10.0143 14.8908 11.0455 15.2952C5.85578 15.0271 3.49843 18.0924 2.45515 21.1353C3.56111 19.5262 5.16377 18.3293 7.0145 17.7304C9.14244 17.1072 11.418 17.2333 13.4651 18.0879C14.6184 18.8417 15.9059 19.3637 17.2564 19.625H17.2919C17.7092 18.7001 18.7436 15.7688 16.1199 13.7536C16.1199 13.7536 20.6836 14.263 19.1209 19.7993C20.9284 19.7915 22.7078 19.3487 24.3107 18.5079C23.7283 19.277 22.9779 19.9008 22.1176 20.331C20.1687 21.2828 18.0422 22.1675 13.6071 19.9378C12.5771 19.4303 11.4542 19.1419 10.3085 19.0903C9.16278 19.0388 8.01882 19.2254 6.9479 19.6384C5.18032 20.3788 3.72809 21.7219 2.84583 23.4321C1.97738 25.0976 1.63068 26.9889 1.85139 28.8567C1.96238 29.7503 2.2465 32.0247 4.11996 33.7718C4.8811 34.4716 5.77864 35.0042 6.75544 35.3357C7.73223 35.6673 8.76691 35.7906 9.79362 35.6977C11.8757 35.4788 12.6038 34.3572 14.7525 34.4868C15.7264 34.5587 16.6717 34.8504 17.5183 35.3402C16.594 35.1135 15.625 35.1522 14.7214 35.4519C14.1007 35.687 13.5308 36.0405 13.0433 36.4931C10.9834 38.1196 7.29864 38.1106 4.68822 36.8416C3.58667 36.3007 2.61784 35.5209 1.85139 34.5583C-0.847812 31.1355 0.173251 26.6806 0.364149 25.8494C0.614351 24.7772 0.991454 23.7391 1.48735 22.7573V22.7573C1.7182 17.6321 3.70709 15.608 5.78476 14.9377C7.37409 9.37015 12.3419 6.41656 12.3419 6.41656C16.1865 4.62922 19.1032 4.32984 21.2608 4.69625C21.7047 3.5166 23.1121 2.2878 23.1121 2.2878C28.9766 -2.60505 34.526 1.60861 36.1819 3.11445C37.1319 2.48441 38.5259 2.02864 40.5725 2.02417C45.6379 2.02864 47.7955 5.64354 48.6479 8.41839Z" fill="#1D1D1B"/>
<path d="M51.7916 24.1426C51.6462 25.0871 51.3076 25.9909 50.7971 26.7968C50.3412 27.4975 49.7566 28.1041 49.0746 28.5842C50.1815 27.095 50.7754 25.283 50.7661 23.4232C50.7488 22.0423 50.3772 20.6893 49.6873 19.4955C49.1215 18.3682 48.2003 17.4615 47.068 16.9173C45.983 16.4609 44.7785 16.3786 43.6422 16.6833C42.5059 16.9881 41.5017 17.6626 40.7861 18.6019C40.8794 18.4187 42.038 16.1845 44.2311 15.4517C44.4487 13.6018 42.8993 12.0378 42.8993 12.0378C45.452 12.2389 46.0069 14.2229 46.0913 15.2372C47.8937 15.407 49.1412 16.6268 49.6074 17.0916C50.8281 18.3342 51.6082 19.947 51.8271 21.6806C53.2566 21.6403 55.9736 21.1086 55.867 17.659C55.8359 17.6456 57.5629 22.963 51.7916 24.1426Z" fill="#1D1D1B"/>
<path d="M39.5778 10.6749C40.087 11.2766 40.4881 11.9631 40.7631 12.7035C40.4568 12.422 36.923 9.29417 33.1716 10.4336C32.2769 10.7136 31.452 11.1828 30.7521 11.8099C29.3929 13.1048 28.5846 14.8791 28.4969 16.7608C27.9447 15.5298 27.8548 14.1391 28.2438 12.8465C28.3839 12.3961 28.5856 11.9675 28.8431 11.573C28.1994 10.9832 26.6234 10.1968 23.2627 11.573C24.1078 10.6596 25.2191 10.0398 26.4366 9.80293C27.6541 9.56604 28.9149 9.72428 30.0373 10.2549C30.43 9.93411 30.8629 9.6667 31.3248 9.4595C31.4891 9.37013 34.5656 7.76152 37.5134 9.1065C37.762 8.37816 38.7964 5.95184 41.509 6.2959C40.7938 6.75265 40.2288 7.41213 39.8852 8.19133C39.5415 8.97054 39.4346 9.83465 39.5778 10.6749V10.6749Z" fill="#1D1D1B"/>
<path d="M66.2998 32.1408V31.8727H66.6461C67.0604 31.8847 67.4727 31.8118 67.8581 31.6583C68.1675 31.5315 68.4266 31.3053 68.595 31.0148C68.7624 30.683 68.8448 30.3144 68.8348 29.9424V15.0896C68.8463 14.7346 68.7635 14.3829 68.595 14.0708C68.4242 13.7876 68.1651 13.5692 67.8581 13.4497C67.4705 13.3054 67.0591 13.2372 66.6461 13.2486H66.2998V13.0029H73.4651C74.7676 12.9641 76.0665 13.1593 77.3008 13.5793C78.2162 13.89 79.0094 14.4863 79.565 15.2817C80.0806 16.0973 80.3404 17.0501 80.3108 18.0164C80.3466 18.9122 80.1296 19.7999 79.6848 20.5767C79.2899 21.2251 78.7406 21.7641 78.0866 22.1451C77.4545 22.5146 76.7789 22.8028 76.0755 23.003L79.8313 28.9013C80.2042 29.4732 80.5283 29.9513 80.8036 30.3356C81.0304 30.6551 81.2844 30.9541 81.5627 31.2293C81.7537 31.4237 81.974 31.5865 82.2153 31.7119C82.4103 31.8079 82.6243 31.8583 82.8413 31.8593H82.9212V32.1274H82.5483C81.8605 32.1346 81.1728 32.1033 80.4884 32.0336C80.0302 31.99 79.5812 31.877 79.1565 31.6985C78.7944 31.5325 78.472 31.2902 78.2109 30.988C77.8851 30.6043 77.5883 30.1965 77.323 29.7681L73.221 23.1997H71.5428V29.9424C71.5296 30.3147 71.6122 30.6841 71.7826 31.0148C71.9499 31.3061 72.2093 31.5327 72.5195 31.6583C72.9032 31.8123 73.3142 31.8853 73.727 31.8727H74.0733V32.1408H66.2998ZM73.403 22.945C74.223 22.9878 75.0414 22.8347 75.7914 22.4981C76.3935 22.1728 76.8528 21.6324 77.0789 20.9834C77.375 20.0943 77.5103 19.159 77.4784 18.2219C77.5109 17.253 77.3711 16.286 77.0655 15.3666C76.8304 14.6922 76.3561 14.1289 75.7337 13.7848C74.9875 13.4228 74.1639 13.2524 73.3364 13.2888H71.5251V22.945H73.403Z" fill="#1D1D1B"/>
<path d="M88.4877 32.4091C87.3239 32.4724 86.1787 32.0946 85.2779 31.3501C84.8798 30.983 84.567 30.5319 84.3621 30.0291C84.1572 29.5262 84.0652 28.984 84.0926 28.4412C84.0553 27.8399 84.1746 27.2393 84.4385 26.6986C84.7024 26.1579 85.102 25.6958 85.5976 25.358C86.6009 24.6789 88.1237 24.3035 90.1658 24.232L92.3856 24.1516V22.1408C92.3977 21.3157 92.3442 20.4909 92.2257 19.6743C92.1684 19.1294 91.9234 18.622 91.5332 18.24C91.0624 17.8996 90.4857 17.741 89.9083 17.7931C88.8784 17.7931 88.2169 18.1148 87.9239 18.7583C87.5763 19.7281 87.4254 20.7583 87.4799 21.7878C86.8922 21.8266 86.3056 21.6964 85.7885 21.4125C85.5872 21.2754 85.4271 21.0856 85.3253 20.8635C85.2236 20.6413 85.1842 20.3955 85.2114 20.1524C85.1993 19.8628 85.2517 19.5741 85.3646 19.3074C85.4775 19.0407 85.6481 18.8027 85.864 18.6108C86.3693 18.1918 86.9679 17.902 87.6087 17.7663C88.3943 17.581 89.1991 17.491 90.006 17.4982C91.6397 17.4982 92.8606 17.8467 93.6686 18.5438C94.4766 19.2409 94.8805 20.4324 94.8805 22.1185V30.1571C94.8668 30.5039 94.9211 30.8501 95.0404 31.1758C95.0897 31.2961 95.1621 31.4054 95.2535 31.4975C95.345 31.5895 95.4536 31.6624 95.5731 31.7121C95.8789 31.8295 96.2049 31.8842 96.532 31.8729H96.6297V32.141H92.5898V29.3259H92.5365C92.3935 29.9706 92.1015 30.5723 91.6841 31.082C91.3068 31.5273 90.8266 31.8725 90.2857 32.0874C89.7118 32.3075 89.1018 32.4166 88.4877 32.4091V32.4091ZM89.0204 32.0338C89.6397 32.0449 90.2479 31.8673 90.7651 31.5244C91.2735 31.1823 91.6826 30.7104 91.9505 30.1571C92.2413 29.5843 92.3934 28.9504 92.3944 28.3072V24.4465L90.6897 24.5269C89.1802 24.5984 88.137 24.947 87.5598 25.5725C86.9827 26.1981 86.6941 27.2526 86.6941 28.7361C86.6793 29.3492 86.7648 29.9606 86.9472 30.5458C87.0835 30.9921 87.359 31.3822 87.733 31.6584C88.1135 31.9141 88.5631 32.0452 89.0204 32.0338V32.0338Z" fill="#1D1D1B"/>
<path d="M98.5029 32.1408V31.8727H98.716C99.1623 31.892 99.6075 31.8143 100.021 31.6448C100.179 31.568 100.32 31.4606 100.437 31.3287C100.554 31.1968 100.643 31.0431 100.7 30.8763C100.851 30.4 100.919 29.9011 100.9 29.4017V20.465C100.918 19.9787 100.851 19.4931 100.7 19.0306C100.587 18.7052 100.353 18.4364 100.048 18.28C99.6441 18.1083 99.2071 18.0304 98.7693 18.0521H98.6361V17.784H103.377V20.3041H103.431C103.599 19.6023 103.959 18.9616 104.47 18.4542C104.88 18.0784 105.38 17.8153 105.921 17.6901C106.398 17.5795 106.884 17.5211 107.373 17.5159C108.953 17.5159 110.13 17.9314 110.902 18.7625C111.675 19.5937 112.061 20.9342 112.061 22.7841V29.4062C112.044 29.9046 112.107 30.4026 112.248 30.8807C112.347 31.2088 112.573 31.4836 112.874 31.6448C113.245 31.8131 113.651 31.8911 114.059 31.8727H114.192V32.1408H109.557V21.8636C109.598 20.876 109.378 19.8952 108.918 19.0217C108.492 18.2889 107.752 17.9225 106.698 17.9225C105.98 17.8815 105.274 18.1217 104.727 18.5927C104.248 19.0619 103.904 19.6535 103.733 20.3041C103.525 21.0302 103.421 21.7826 103.426 22.5383V29.4062C103.408 29.9056 103.475 30.4045 103.626 30.8807C103.74 31.2135 103.979 31.488 104.292 31.6448C104.692 31.814 105.124 31.8918 105.557 31.8727H105.69V32.1408H98.5029Z" fill="#1D1D1B"/>
<path d="M121.757 32.4089C120.717 32.4425 119.692 32.1472 118.827 31.5644C117.978 30.9337 117.345 30.053 117.016 29.0443C116.575 27.7189 116.367 26.3262 116.403 24.9289C116.365 23.5326 116.568 22.1402 117.002 20.8136C117.302 19.81 117.929 18.9375 118.782 18.3367C119.635 17.736 120.664 17.4421 121.704 17.5025C122.74 17.4413 123.759 17.7928 124.54 18.4811C125.224 19.1335 125.681 20.1388 125.912 21.4972H125.966C125.948 20.8538 125.934 20.2237 125.926 19.6071C125.917 18.9905 125.917 18.4275 125.926 17.9181V14.1244C125.942 13.7115 125.869 13.2999 125.712 12.918C125.573 12.6156 125.326 12.3766 125.02 12.2477C124.613 12.089 124.178 12.016 123.741 12.0332H123.661V11.7651H128.429V29.8084C128.415 30.2125 128.487 30.615 128.643 30.988C128.786 31.2928 129.038 31.5321 129.348 31.6583C129.752 31.8146 130.182 31.8876 130.614 31.8727H130.827V32.1408H125.943V28.3606H125.89C125.659 29.7369 125.202 30.7557 124.518 31.417C124.146 31.7575 123.71 32.0205 123.236 32.1907C122.762 32.361 122.259 32.4351 121.757 32.4089V32.4089ZM122.201 32.0068C122.786 32.0266 123.364 31.8716 123.861 31.5615C124.359 31.2514 124.754 30.8 124.998 30.2641C125.59 29.1024 125.886 27.324 125.886 24.9289C125.912 23.6222 125.782 22.3171 125.499 21.0414C125.325 20.165 124.915 19.3535 124.314 18.6956C124.034 18.4282 123.703 18.2204 123.342 18.0845C122.98 17.9486 122.595 17.8874 122.21 17.9047C121.864 17.889 121.519 17.9426 121.195 18.0622C120.87 18.1819 120.572 18.3653 120.319 18.6017C119.761 19.2271 119.4 20.0044 119.28 20.8359C119.04 22.1759 118.933 23.5364 118.96 24.8976C118.934 26.2766 119.041 27.6549 119.28 29.013C119.398 29.8584 119.759 30.6505 120.319 31.2919C120.569 31.5345 120.866 31.7231 121.191 31.846C121.516 31.969 121.863 32.0237 122.21 32.0068H122.201Z" fill="#1D1D1B"/>
<path d="M138.938 32.4089C137.02 32.4089 135.51 31.7922 134.409 30.559C133.308 29.3257 132.758 27.449 132.758 24.9289C132.758 22.4266 133.286 20.5633 134.343 19.3389C135.399 18.1146 136.958 17.5024 139.017 17.5024C140.935 17.5024 142.445 18.1146 143.546 19.3389C144.647 20.5633 145.197 22.4266 145.197 24.9289C145.197 27.449 144.669 29.3257 143.612 30.559C142.556 31.7922 140.998 32.4089 138.938 32.4089ZM138.991 32.1408C139.758 32.1769 140.51 31.9181 141.095 31.4169C141.706 30.7855 142.111 29.9808 142.254 29.1112C142.523 27.7343 142.644 26.332 142.613 24.9289C142.643 23.5346 142.523 22.1413 142.254 20.7733C142.113 19.9069 141.708 19.1059 141.095 18.481C140.498 17.9852 139.738 17.7319 138.964 17.7705C138.199 17.7343 137.448 17.9877 136.86 18.481C136.247 19.1059 135.842 19.9069 135.701 20.7733C135.432 22.1413 135.312 23.5346 135.342 24.9289C135.311 26.332 135.432 27.7343 135.701 29.1112C135.845 29.9835 136.254 30.7893 136.873 31.4169C137.464 31.917 138.22 32.1754 138.991 32.1408V32.1408Z" fill="#1D1D1B"/>
<path d="M147.009 32.1408V31.8727H147.355C147.791 31.89 148.227 31.817 148.634 31.6583C148.939 31.5294 149.186 31.2904 149.326 30.988C149.482 30.615 149.554 30.2125 149.539 29.8084V14.1244C149.556 13.7115 149.483 13.2999 149.326 12.918C149.186 12.6156 148.939 12.3766 148.634 12.2477C148.227 12.089 147.791 12.016 147.355 12.0332H147.009V11.7651H152.043V29.6743C152.026 30.1134 152.099 30.5514 152.256 30.9612C152.391 31.2737 152.638 31.5229 152.949 31.6583C153.356 31.817 153.791 31.89 154.227 31.8727H154.574V32.1408H147.009Z" fill="#1D1D1B"/>
<path d="M155.64 32.1408V31.8727H155.986C156.422 31.89 156.857 31.817 157.264 31.6583C157.57 31.5293 157.817 31.2904 157.957 30.988C158.112 30.615 158.185 30.2125 158.17 29.8084V18.0387H155.746V17.7706H158.17V16.4301C158.17 14.8394 158.587 13.6195 159.422 12.7705C160.257 11.9215 161.517 11.497 163.204 11.497C163.843 11.4802 164.481 11.5616 165.096 11.7383C165.522 11.8573 165.912 12.0833 166.228 12.3952C166.479 12.6575 166.618 13.0091 166.614 13.3737C166.622 13.6714 166.523 13.962 166.334 14.1915C166.127 14.4285 165.86 14.6046 165.562 14.7008C165.197 14.8228 164.814 14.8817 164.43 14.8751C164.43 13.7312 164.301 12.9269 164.044 12.4622C163.91 12.2313 163.713 12.0434 163.478 11.92C163.242 11.7967 162.976 11.743 162.712 11.7651C162.381 11.7443 162.053 11.8273 161.771 12.0026C161.49 12.1779 161.269 12.4369 161.14 12.7437C160.844 13.3961 160.696 14.5444 160.696 16.1888V17.7706H164.452V18.0387H160.696V29.6564C160.679 30.0955 160.752 30.5335 160.909 30.9433C161.047 31.2582 161.3 31.5078 161.615 31.6404C162.018 31.7967 162.449 31.8697 162.88 31.8549H163.893V32.123L155.64 32.1408Z" fill="#1D1D1B"/>
<path d="M171.755 32.1409V31.8728H172.794C173.208 31.8848 173.62 31.8118 174.006 31.6583C174.315 31.5325 174.573 31.3059 174.738 31.0149C174.909 30.6842 174.991 30.3148 174.978 29.9425V15.0897C174.992 14.7344 174.909 14.3822 174.738 14.0709C174.567 13.7935 174.31 13.5813 174.006 13.4676C173.618 13.3234 173.207 13.2551 172.794 13.2666H171.755V13.0029H177.162L183.955 29.1426L189.859 13.0029H194.743V13.271H194.396C193.982 13.259 193.57 13.332 193.184 13.4855C192.875 13.6113 192.617 13.8379 192.452 14.129C192.281 14.4597 192.199 14.8291 192.212 15.2014V29.9469C192.199 30.3192 192.281 30.6886 192.452 31.0193C192.617 31.3104 192.875 31.537 193.184 31.6628C193.57 31.8163 193.982 31.8893 194.396 31.8773H194.743V32.1454H187.639V31.8773H187.719C188.069 31.887 188.416 31.8135 188.731 31.6628C189.014 31.5219 189.246 31.2973 189.397 31.0193C189.568 30.6886 189.65 30.3192 189.637 29.9469V14.3926L183.164 32.1409H182.525L175.253 14.7411V29.9335C175.24 30.3058 175.323 30.6752 175.493 31.0059C175.659 31.297 175.917 31.5236 176.225 31.6494C176.611 31.8029 177.023 31.8759 177.437 31.8639H177.917V32.132L171.755 32.1409Z" fill="#1D1D1B"/>
<path d="M201.455 32.4089C200.291 32.4722 199.146 32.0944 198.245 31.3499C197.847 30.9828 197.534 30.5317 197.329 30.0289C197.124 29.526 197.032 28.9838 197.059 28.441C197.022 27.8397 197.141 27.2391 197.405 26.6984C197.669 26.1577 198.069 25.6956 198.564 25.3578C199.568 24.6787 201.09 24.3033 203.133 24.2318L205.352 24.1514V22.1406C205.365 21.3155 205.311 20.4907 205.193 19.6741C205.135 19.1292 204.89 18.6218 204.5 18.2398C204.029 17.8994 203.452 17.7408 202.875 17.7929C201.845 17.7929 201.184 18.1146 200.891 18.7581C200.543 19.7279 200.392 20.7581 200.447 21.7876C199.859 21.8264 199.272 21.6962 198.755 21.4123C198.559 21.2769 198.403 21.0911 198.302 20.8743C198.201 20.6574 198.16 20.4173 198.183 20.179C198.171 19.8894 198.223 19.6007 198.336 19.334C198.449 19.0673 198.619 18.8293 198.835 18.6374C199.341 18.2184 199.939 17.9286 200.58 17.7929C201.366 17.6076 202.17 17.5176 202.977 17.5248C204.611 17.5248 205.832 17.8733 206.64 18.5704C207.448 19.2675 207.852 20.459 207.852 22.1451V30.1569C207.838 30.5037 207.892 30.8499 208.012 31.1756C208.061 31.2959 208.133 31.4052 208.225 31.4973C208.316 31.5893 208.425 31.6622 208.544 31.7118C208.85 31.8293 209.176 31.884 209.503 31.8727H209.583V32.1408H205.561V29.3257H205.508C205.365 29.9704 205.073 30.5721 204.655 31.0818C204.278 31.5271 203.798 31.8723 203.257 32.0872C202.682 32.3078 202.07 32.417 201.455 32.4089V32.4089ZM201.987 32.0336C202.607 32.0447 203.215 31.8671 203.732 31.5242C204.24 31.1821 204.649 30.7102 204.917 30.1569C205.208 29.5841 205.36 28.9502 205.361 28.307V24.4463L203.656 24.5267C202.147 24.5982 201.111 24.9468 200.549 25.5723C199.987 26.1979 199.691 27.2524 199.661 28.7359C199.646 29.349 199.732 29.9604 199.914 30.5456C200.05 30.9919 200.326 31.382 200.7 31.6582C201.08 31.9139 201.53 32.045 201.987 32.0336V32.0336Z" fill="#1D1D1B"/>
<path d="M218.316 32.409C217.206 32.4321 216.108 32.1788 215.119 31.6717C214.155 31.1356 213.396 30.2913 212.962 29.2722C212.395 27.8885 212.131 26.3978 212.189 24.9022C212.124 23.4004 212.393 21.903 212.975 20.5187C213.409 19.5328 214.153 18.7179 215.093 18.1996C216.025 17.7245 217.058 17.4853 218.102 17.5026C218.852 17.5001 219.599 17.5993 220.322 17.7975C220.974 17.9566 221.581 18.2622 222.098 18.6912C222.325 18.8876 222.505 19.1331 222.625 19.4092C222.745 19.6854 222.802 19.9852 222.791 20.2864C222.807 20.6263 222.708 20.9618 222.511 21.2381C222.305 21.4921 222.026 21.6749 221.712 21.7609C221.291 21.8781 220.856 21.9324 220.42 21.9218C220.434 21.135 220.367 20.3488 220.22 19.5759C220.138 19.0552 219.89 18.5754 219.514 18.2086C219.105 17.8881 218.593 17.7292 218.076 17.7618C217.455 17.7568 216.852 17.9701 216.371 18.365C215.773 18.9418 215.368 19.6913 215.212 20.5098C214.894 21.957 214.755 23.4384 214.8 24.9201C214.766 26.3386 214.9 27.7561 215.199 29.1427C215.363 30.0277 215.812 30.8335 216.478 31.4349C217.131 31.9211 217.93 32.1671 218.742 32.132C219.284 32.1403 219.823 32.04 220.327 31.8371C220.825 31.6179 221.25 31.2597 221.552 30.8049C221.95 30.189 222.225 29.5017 222.364 28.7807C222.448 28.7953 222.527 28.8266 222.598 28.8726C222.669 28.9187 222.73 28.9786 222.777 29.0488C222.884 29.2261 222.935 29.4317 222.924 29.6386C222.908 30.1096 222.729 30.56 222.418 30.9121C222.006 31.3853 221.484 31.749 220.899 31.9711C220.076 32.2887 219.197 32.4376 218.316 32.409Z" fill="#1D1D1B"/>
<path d="M224.31 32.1408V31.8727H224.523C224.969 31.8921 225.414 31.8144 225.828 31.6449C226.146 31.4908 226.39 31.216 226.507 30.8808C226.658 30.4045 226.725 29.9056 226.707 29.4062V14.4462C226.725 13.9599 226.657 13.4743 226.507 13.0118C226.394 12.6864 226.16 12.4175 225.854 12.2611C225.451 12.0894 225.014 12.0115 224.576 12.0332H224.443V11.7651H229.211V19.2586C229.211 19.5982 229.202 19.9467 229.184 20.3042H229.237C229.406 19.6023 229.766 18.9617 230.276 18.4543C230.687 18.0785 231.187 17.8153 231.728 17.6902C232.204 17.5796 232.691 17.5212 233.18 17.5159C234.76 17.5159 235.944 17.9315 236.731 18.7626C237.518 19.5937 237.905 20.9342 237.89 22.7841V29.4062C237.873 29.9046 237.936 30.4026 238.076 30.8808C238.176 31.2088 238.401 31.4836 238.702 31.6449C239.074 31.8131 239.48 31.8912 239.888 31.8727H240.021V32.1408H235.364V21.8636C235.405 20.876 235.184 19.8953 234.725 19.0217C234.298 18.2889 233.559 17.9225 232.505 17.9225C231.787 17.8816 231.08 18.1217 230.534 18.5928C230.04 19.0631 229.685 19.6615 229.508 20.322C229.3 21.0481 229.197 21.8006 229.202 22.5562V29.4062C229.183 29.9056 229.251 30.4045 229.402 30.8808C229.515 31.2136 229.755 31.488 230.068 31.6449C230.467 31.814 230.9 31.8918 231.333 31.8727H231.466V32.1408H224.31Z" fill="#1D1D1B"/>
<path d="M246.471 32.4089C245.307 32.4722 244.162 32.0944 243.261 31.3499C242.863 30.9828 242.55 30.5317 242.346 30.0289C242.141 29.526 242.049 28.9838 242.076 28.441C242.039 27.8397 242.158 27.2391 242.422 26.6984C242.686 26.1577 243.085 25.6956 243.581 25.3578C244.584 24.6787 246.107 24.3033 248.149 24.2318L250.369 24.1514V22.1406C250.381 21.3155 250.328 20.4907 250.209 19.6741C250.152 19.1292 249.907 18.6218 249.517 18.2398C249.046 17.8994 248.469 17.7408 247.892 17.7929C246.862 17.7929 246.2 18.1146 245.907 18.7581C245.56 19.7279 245.409 20.7581 245.463 21.7876C244.876 21.8264 244.289 21.6962 243.772 21.4123C243.576 21.2769 243.419 21.0911 243.318 20.8743C243.218 20.6574 243.177 20.4173 243.199 20.179C243.187 19.8894 243.24 19.6007 243.352 19.334C243.465 19.0673 243.636 18.8293 243.852 18.6374C244.357 18.2184 244.956 17.9286 245.597 17.7929C246.382 17.6076 247.187 17.5176 247.994 17.5248C249.628 17.5248 250.848 17.8733 251.656 18.5704C252.464 19.2675 252.868 20.459 252.868 22.1451V30.1569C252.855 30.5037 252.909 30.8499 253.028 31.1756C253.078 31.2959 253.15 31.4052 253.241 31.4973C253.333 31.5893 253.441 31.6622 253.561 31.7118C253.867 31.8293 254.193 31.884 254.52 31.8727H254.6V32.1408H250.578V29.3257H250.524C250.381 29.9704 250.089 30.5721 249.672 31.0818C249.295 31.5271 248.814 31.8723 248.274 32.0872C247.698 32.3078 247.087 32.417 246.471 32.4089V32.4089ZM247.004 32.0336C247.623 32.0447 248.231 31.8671 248.749 31.5242C249.257 31.1821 249.666 30.7102 249.934 30.1569C250.225 29.5841 250.377 28.9502 250.378 28.307V24.4463L248.673 24.5267C247.164 24.5982 246.128 24.9468 245.565 25.5723C245.003 26.1979 244.707 27.2524 244.678 28.7359C244.663 29.349 244.748 29.9604 244.931 30.5456C245.067 30.9919 245.342 31.382 245.716 31.6582C246.097 31.9139 246.546 32.045 247.004 32.0336Z" fill="#1D1D1B"/>
<path d="M262.56 32.4089C261.519 32.4425 260.495 32.1472 259.63 31.5644C258.781 30.9337 258.148 30.053 257.818 29.0443C257.377 27.7189 257.17 26.3262 257.206 24.9289C257.168 23.5326 257.371 22.1402 257.805 20.8136C258.105 19.81 258.732 18.9375 259.585 18.3367C260.438 17.736 261.467 17.4421 262.506 17.5025C263.543 17.4413 264.562 17.7928 265.343 18.4811C266.027 19.1335 266.484 20.1388 266.715 21.4972H266.768C266.751 20.8538 266.737 20.2237 266.728 19.6071C266.719 18.9905 266.719 18.4275 266.728 17.9181V14.1244C266.745 13.7115 266.672 13.2999 266.515 12.918C266.375 12.6156 266.128 12.3766 265.823 12.2477C265.416 12.089 264.98 12.016 264.544 12.0332H264.442V11.7651H269.21V29.8084C269.195 30.2125 269.268 30.615 269.423 30.988C269.566 31.2928 269.818 31.5321 270.129 31.6583C270.532 31.8146 270.962 31.8876 271.394 31.8727H271.607V32.1408H266.724V28.3606H266.671C266.44 29.7369 265.983 30.7557 265.299 31.417C264.552 32.0992 263.567 32.4559 262.56 32.4089V32.4089ZM263.004 32.0068C263.589 32.0266 264.166 31.8716 264.664 31.5615C265.162 31.2514 265.557 30.8 265.801 30.2641C266.392 29.1024 266.688 27.324 266.688 24.9289C266.714 23.6222 266.585 22.3171 266.302 21.0414C266.128 20.165 265.718 19.3535 265.117 18.6956C264.837 18.4282 264.506 18.2204 264.145 18.0845C263.783 17.9486 263.398 17.8874 263.013 17.9047C262.667 17.889 262.322 17.9426 261.997 18.0622C261.673 18.1819 261.375 18.3653 261.121 18.6017C260.564 19.2271 260.202 20.0044 260.082 20.8359C259.843 22.1759 259.736 23.5364 259.763 24.8976C259.736 26.2766 259.843 27.6549 260.082 29.013C260.2 29.8584 260.562 30.6505 261.121 31.2919C261.371 31.5345 261.668 31.7231 261.993 31.846C262.319 31.969 262.666 32.0237 263.013 32.0068H263.004Z" fill="#1D1D1B"/>
<path d="M279.74 32.4089C277.822 32.4089 276.313 31.7922 275.212 30.559C274.111 29.3257 273.561 27.449 273.561 24.9289C273.561 22.4266 274.089 20.5633 275.145 19.3389C276.202 18.1146 277.76 17.5024 279.82 17.5024C281.738 17.5024 283.247 18.1146 284.348 19.3389C285.449 20.5633 286 22.4266 286 24.9289C286 27.449 285.472 29.3257 284.415 30.559C283.358 31.7922 281.8 32.4089 279.74 32.4089ZM279.794 32.1408C280.561 32.1769 281.313 31.9181 281.898 31.4169C282.509 30.7855 282.913 29.9808 283.057 29.1112C283.326 27.7343 283.447 26.332 283.416 24.9289C283.446 23.5346 283.325 22.1413 283.057 20.7733C282.915 19.9069 282.511 19.1059 281.898 18.481C281.3 17.9852 280.54 17.7319 279.767 17.7705C279.002 17.7343 278.251 17.9877 277.663 18.481C277.05 19.1059 276.645 19.9069 276.504 20.7733C276.235 22.1413 276.115 23.5346 276.144 24.9289C276.114 26.332 276.234 27.7343 276.504 29.1112C276.648 29.9835 277.057 30.7893 277.676 31.4169C278.267 31.917 279.022 32.1754 279.794 32.1408V32.1408Z" fill="#1D1D1B"/>
<path d="M66.4014 37.4626H70.3392V37.981H66.4014V37.4626ZM68.0928 37.6905H68.6611V43.0794H68.1061L68.0928 37.6905Z" fill="#1D1D1B"/>
<path d="M71.9326 37.4626H72.4831V43.0794H71.9326V37.4626ZM72.31 37.4626H75.5153V37.981H72.31V37.4626ZM72.31 40.032H75.0935V40.5503H72.31V40.032ZM72.31 42.561H75.5153V43.0794H72.31V42.561Z" fill="#1D1D1B"/>
<path d="M77.4512 37.4583H78.0061V43.0795H77.4512V37.4583ZM77.793 40.184H79.6975C79.8881 40.1885 80.0765 40.1422 80.2436 40.05C80.4002 39.959 80.5267 39.8239 80.6076 39.6612C80.6942 39.48 80.7392 39.2814 80.7392 39.0803C80.7392 38.8792 80.6942 38.6807 80.6076 38.4994C80.5278 38.3372 80.4008 38.2032 80.2436 38.1152C80.0761 38.0193 79.8857 37.9714 79.6931 37.9767H77.7886V37.4583H79.6621C79.9584 37.4527 80.2514 37.5218 80.5144 37.6594C80.7541 37.7896 80.9514 37.9867 81.0827 38.2269C81.214 38.492 81.2824 38.7841 81.2824 39.0803C81.2824 39.3765 81.214 39.6687 81.0827 39.9338C80.9508 40.1751 80.7518 40.3724 80.51 40.5013C80.2488 40.6394 79.957 40.7086 79.6621 40.7023H77.7886L77.793 40.184ZM79.5688 40.5281L80.0793 40.3493L81.5089 43.0795H80.8474L79.5688 40.5281Z" fill="#1D1D1B"/>
<path d="M84.7281 37.4626H85.3984L87.4539 43.0794H86.8634L85.0877 38.0257L83.3119 43.0615H82.6992L84.7281 37.4626ZM83.6226 41.1982H86.5571V41.7165H83.6226V41.1982Z" fill="#1D1D1B"/>
<path d="M89.123 37.4627H89.678V43.0794H89.123V37.4627ZM89.527 40.3805H91.3028C91.5049 40.3843 91.7042 40.3334 91.8799 40.2331C92.0485 40.1257 92.1814 39.9701 92.2617 39.7862C92.3572 39.592 92.4044 39.3773 92.3994 39.1607C92.4051 38.9425 92.3579 38.7262 92.2617 38.5306C92.1814 38.3468 92.0485 38.1912 91.8799 38.0838C91.7042 37.9835 91.5049 37.9326 91.3028 37.9363H89.527V37.418H91.3028C91.6123 37.4104 91.9184 37.4843 92.1907 37.6325C92.4405 37.773 92.6453 37.9822 92.7812 38.2357C92.9165 38.514 92.9868 38.8196 92.9868 39.1294C92.9868 39.4392 92.9165 39.7448 92.7812 40.0231C92.6453 40.2766 92.4405 40.4858 92.1907 40.6263C91.9184 40.7745 91.6123 40.8484 91.3028 40.8408H89.527V40.3805Z" fill="#1D1D1B"/>
<path d="M95.4314 43.0794H94.8809V37.4626H95.4314V43.0794Z" fill="#1D1D1B"/>
<path d="M99.1956 37.4626H99.8659L101.921 43.0794H101.309L99.533 38.0435L97.7572 43.0794H97.1445L99.1956 37.4626ZM98.0901 41.1982H101.025V41.7165H98.0901V41.1982Z" fill="#1D1D1B"/>
<path d="M106.525 37.4626H107.08V43.0794H106.525V37.4626ZM106.969 42.561H108.501C108.866 42.5916 109.23 42.4971 109.535 42.2929C109.644 42.201 109.73 42.0849 109.786 41.9538C109.842 41.8228 109.867 41.6803 109.859 41.5378V41.5378C109.864 41.3403 109.823 41.1445 109.74 40.9658C109.656 40.8048 109.522 40.676 109.358 40.5994C109.149 40.5042 108.921 40.4599 108.692 40.4699H106.969V39.9515H108.692C108.986 39.9747 109.279 39.8871 109.513 39.7058C109.694 39.5037 109.792 39.2398 109.787 38.9677C109.783 38.6955 109.675 38.4354 109.487 38.2401C109.227 38.059 108.914 37.9723 108.599 37.9944H106.983V37.4761H108.723C109.029 37.4694 109.332 37.532 109.611 37.6593C109.843 37.7739 110.033 37.9581 110.157 38.1865C110.281 38.4373 110.342 38.7151 110.334 38.9953C110.336 39.1814 110.299 39.3658 110.223 39.536C110.15 39.7109 110.034 39.8645 109.886 39.9828C109.72 40.1105 109.524 40.1949 109.318 40.2286C109.53 40.2537 109.731 40.3372 109.899 40.4699C110.063 40.5933 110.192 40.7562 110.277 40.9435C110.366 41.138 110.412 41.3502 110.41 41.5646V41.5646C110.416 41.8458 110.347 42.1234 110.21 42.3689C110.077 42.6013 109.877 42.7881 109.637 42.9051C109.362 43.042 109.057 43.108 108.75 43.0972H106.947L106.969 42.561Z" fill="#1D1D1B"/>
<path d="M112.426 37.4582H112.981V43.0794H112.426V37.4582ZM112.768 40.1839H114.672C114.863 40.1883 115.051 40.1421 115.218 40.0498C115.374 39.9575 115.5 39.8227 115.582 39.6611C115.669 39.48 115.715 39.2814 115.715 39.0802C115.719 38.8791 115.674 38.6801 115.587 38.4993C115.505 38.338 115.379 38.2044 115.223 38.115C115.055 38.0196 114.865 37.9718 114.672 37.9765H112.768V37.4582H114.641C114.936 37.4516 115.228 37.5208 115.489 37.6593C115.73 37.7882 115.927 37.9856 116.057 38.2268C116.191 38.491 116.261 38.7835 116.261 39.0802C116.261 39.3769 116.191 39.6694 116.057 39.9337C115.927 40.1748 115.73 40.3722 115.489 40.5011C115.228 40.6393 114.936 40.7084 114.641 40.7022H112.768V40.1839ZM114.543 40.528L115.054 40.3492L116.479 43.0794H115.822L114.543 40.528Z" fill="#1D1D1B"/>
<path d="M118.383 37.4626H118.933V43.0794H118.383V37.4626ZM118.765 37.4626H121.965V37.981H118.765V37.4626ZM118.765 40.032H121.544V40.5503H118.765V40.032ZM118.765 42.561H121.965V43.0794H118.765V42.561Z" fill="#1D1D1B"/>
<path d="M123.32 37.4626H123.906L125.513 42.2885L127.121 37.4626H127.707L125.775 43.0794H125.26L123.32 37.4626Z" fill="#1D1D1B"/>
<path d="M129.375 37.4626H129.925V43.0794H129.375V37.4626ZM129.752 37.4626H132.958V37.981H129.752V37.4626ZM129.752 40.032H132.536V40.5503H129.752V40.032ZM129.752 42.561H132.958V43.0794H129.752V42.561Z" fill="#1D1D1B"/>
</g>
<defs>
<clipPath id="clip0_1_3048">
<rect width="286" height="49" fill="white"/>
</clipPath>
</defs>
</svg>
