<svg width="388" height="169" viewBox="0 0 388 169" fill="none" xmlns="http://www.w3.org/2000/svg">
<path d="M300.179 115.521C289.202 101.557 255.269 101.847 255.269 101.847C227.887 100.855 201.154 110.318 180.495 128.316C179.136 127.574 177.761 126.832 176.371 126.089C173.647 124.626 170.948 123.256 168.271 121.981C170.662 120.905 172.957 119.627 175.132 118.163C177.572 116.627 179.843 114.838 181.906 112.823C186.666 110.979 190.889 107.974 194.192 104.081C196.178 104.339 198.197 104.043 200.025 103.227C201.854 102.411 203.422 101.106 204.557 99.4556C204.787 99.1064 204.989 98.7393 205.161 98.3579C205.935 96.6776 206.175 94.8006 205.851 92.9794C205.699 92.1077 205.435 91.2592 205.067 90.4548C204.671 89.5406 204.143 88.6898 203.499 87.9302C202.666 86.9863 201.66 86.2117 200.535 85.6486C200.337 85.3608 200.186 85.0432 200.088 84.7078C199.974 84.2062 199.961 83.6869 200.052 83.1805C200.142 82.6741 200.333 82.191 200.613 81.7598C200.393 81.893 200.19 82.0537 200.01 82.238C199.633 82.678 199.354 83.1925 199.191 83.7479C199.027 84.3032 198.983 84.8868 199.061 85.4604C198.075 85.2186 197.042 85.2413 196.067 85.5263C195.093 85.8113 194.211 86.3484 193.51 87.0834C194.361 86.6645 195.279 86.399 196.223 86.2994C197.654 86.1084 199.109 86.3687 200.386 87.0442C201.89 87.9875 202.989 89.458 203.467 91.1683C203.939 92.3681 204.142 93.6569 204.062 94.9438C203.983 96.2307 203.621 97.4844 203.005 98.6166C202.433 99.5832 201.67 100.423 200.763 101.085C199.856 101.747 198.823 102.217 197.728 102.466C196.419 102.698 195.074 102.624 193.798 102.25C192.522 101.876 191.35 101.212 190.374 100.31C190.374 100.31 181.867 87.3108 174.191 97.7542C174.638 97.2446 177.562 94.1163 181.247 95.0806C181.247 95.0806 185.395 95.5902 189.378 101.228C190.102 102.274 191.112 103.091 192.287 103.58C190.907 106.285 186.9 109.068 183.349 111.161C184.35 109.865 185.143 108.421 185.701 106.88C186.093 105.732 186.356 104.543 186.485 103.337C186.289 103.776 186.061 104.277 185.787 104.826C185.222 105.945 184.577 107.022 183.858 108.049C182.262 110.248 180.364 112.211 178.221 113.882V113.882L177.994 114.062L177.845 114.188H177.79C174.189 116.994 170.181 119.233 165.904 120.829C157.761 116.426 149.295 112.649 140.579 109.53C136.855 108.198 90.0395 91.9131 67.6629 106.026C65.201 107.594 59.8224 110.997 58.8032 117.002C57.8702 122.342 61.0456 127.069 61.6493 127.979C63.4055 130.613 65.6871 132.479 69.1055 134.392C74.633 137.482 83.0223 140.665 96.0296 140.892C101.88 140.964 107.724 140.478 113.482 139.442C130.03 136.802 146.165 132.024 161.482 125.227C163.771 126.191 166.186 127.305 168.695 128.591C171.463 130.01 173.995 131.468 176.3 132.903C164.539 143.166 158.69 155.522 162.234 164.335C163.009 166.216 164.168 167.914 165.637 169.321C164.748 166.744 164.277 164.042 164.241 161.316C164.132 151.712 169.604 144.608 172.223 141.214C174.18 138.677 176.416 136.368 178.887 134.33C181.639 136.094 185.324 138.313 189.793 140.649C196.184 144.088 202.857 146.973 209.74 149.274C218.213 152.012 226.942 153.882 235.793 154.856L237.636 155.068C244.261 155.732 250.94 155.664 257.551 154.864C264.936 153.648 282.46 149.791 294.581 138.642C302.421 131.437 302.766 125.854 302.79 124.223C302.765 121.133 301.859 118.114 300.179 115.521V115.521ZM152.167 126.905C148.835 128.167 146.255 129.022 141.669 130.535C140.469 130.935 137.404 131.946 133.57 133.169H133.452C130.382 134.14 127.255 134.926 124.091 135.521C115.85 137.09 111.726 137.874 106.951 138.32C99.5478 139.169 92.0653 139.051 84.6923 137.968C77.2439 136.807 70.5795 134.643 66.087 130.723C64.6926 129.517 63.478 128.118 62.4804 126.568C62.0648 125.917 59.501 121.863 59.6892 117.943C60.0263 110.761 69.4113 106.238 71.9046 105.038C79.5804 101.337 86.9739 101.604 90.5805 101.902C115.027 103.838 154.723 121.613 159.694 123.855C157.938 124.615 155.35 125.705 152.167 126.905ZM288.222 137.779C274.392 148.442 257.472 148.584 247.742 148.544C227.686 148.458 212.092 142.429 200.88 137.968C194.862 135.577 188.993 132.831 183.302 129.743C188.18 124.894 193.627 120.653 199.523 117.112C212.068 109.562 223.311 107.257 231.818 105.626C248.487 102.435 260.702 102.945 270.056 104.701C278.485 106.269 282.546 107.272 290.245 111.545C292.887 113.019 297.694 117.434 297.984 123.141C298.321 129.861 291.821 135.012 288.222 137.779Z" fill="#1D1D1B"/>
<path d="M222.732 92.9713C219.674 99.7219 211.167 100.279 210.399 100.318C208.414 100.411 206.431 100.118 204.558 99.4553C204.788 99.1061 204.99 98.7391 205.161 98.3577C208.097 99.3571 211.277 99.3763 214.225 98.4126C216.74 97.6923 218.935 96.1385 220.45 94.0063C223.586 89.3491 221.516 83.9392 221.422 83.704C220.634 81.7534 219.307 80.0674 217.596 78.8429C216.187 77.875 214.58 77.2323 212.892 76.9612C212.657 76.9612 212.429 76.8906 212.21 76.875C211.609 76.8007 211.003 76.7797 210.399 76.8122C209.397 76.8539 208.404 77.0198 207.443 77.3062C208.33 76.8344 209.277 76.4836 210.258 76.2634C210.826 76.1436 211.403 76.065 211.983 76.0282C212.659 75.9936 213.336 76.0278 214.005 76.1301C216.015 76.4339 217.894 77.3135 219.415 78.6626C221.127 80.15 222.408 82.0698 223.124 84.2214C224.056 87.0895 223.916 90.1981 222.732 92.9713V92.9713Z" fill="#1D1D1B"/>
<path d="M212.193 76.8516C211.592 76.7837 210.987 76.7653 210.382 76.7967C210.382 76.6164 210.296 76.4361 210.241 76.2479C210.81 76.1281 211.386 76.0495 211.966 76.0127C212.06 76.3185 212.131 76.6086 212.193 76.8516Z" fill="#1D1D1B"/>
<path d="M199.923 97.5737C199.476 95.8279 198.372 94.3222 196.842 93.3712C196.075 92.9179 195.213 92.6494 194.325 92.5872C191.534 92.399 190.405 94.563 188.476 94.265C187.598 94.1318 186.477 93.481 185.34 91.1838C186.213 92.0858 187.382 92.6426 188.633 92.7518C190.381 92.8067 191.142 91.6385 192.765 91.1838C192.704 90.9552 192.611 90.7362 192.49 90.533C192.083 89.8587 191.573 89.6784 191.15 89.2785C190.726 88.8787 190.177 87.8986 190.311 86.064C190.584 86.9785 191.115 87.7951 191.84 88.4161C192.624 89.0355 193.172 89.0512 193.69 89.6862C193.984 90.0554 194.174 90.4968 194.239 90.9642C195.692 90.9938 197.086 91.5511 198.159 92.5323C198.801 93.1941 199.292 93.9879 199.597 94.8585C199.901 95.7291 200.013 96.6557 199.923 97.5737V97.5737Z" fill="#1D1D1B"/>
<path d="M211.966 76.0673C211.386 76.104 210.81 76.1827 210.241 76.3025C209.842 74.8755 209.112 73.2447 207.811 72.4607C205.247 70.8926 200.755 70.3908 198.214 74.4757C198.251 73.6653 198.524 72.8833 198.998 72.2255C198.889 72.0922 196.231 69.0031 192.295 69.6617C191.302 69.8452 190.357 70.2299 189.518 70.7921C188.68 71.3544 187.965 72.0823 187.418 72.9311C188.902 73.4206 190.173 74.4062 191.017 75.7223C189.354 74.5693 187.424 73.8596 185.411 73.6603C181.491 73.2918 177.076 74.9539 174.748 78.4821C174.059 79.5325 173.572 80.7026 173.313 81.9319C174.36 81.9515 175.395 82.1559 176.371 82.5356C171.463 82.2847 169.244 85.17 168.24 88.0239C169.285 86.509 170.801 85.3817 172.552 84.8172C174.567 84.2313 176.722 84.3502 178.66 85.1543C179.752 85.8634 180.972 86.3534 182.251 86.5969V86.5969C182.651 85.7266 183.623 82.9668 181.146 81.1086C181.146 81.1086 185.466 81.5869 183.984 86.7929C185.696 86.786 187.382 86.3693 188.9 85.5777C188.347 86.301 187.637 86.8884 186.822 87.2947C184.972 88.1885 182.965 89.0196 178.762 86.9262C177.787 86.444 176.723 86.1698 175.636 86.1212C174.549 86.0726 173.465 86.2507 172.451 86.644C170.791 87.3331 169.428 88.5852 168.601 90.18C167.774 91.743 167.443 93.5206 167.652 95.2763C167.796 97.0268 168.557 98.6692 169.8 99.91C170.522 100.567 171.372 101.067 172.296 101.378C173.22 101.69 174.199 101.807 175.171 101.721C177.147 101.517 177.837 100.451 179.875 100.584C180.796 100.647 181.691 100.915 182.494 101.368C181.618 101.155 180.701 101.19 179.844 101.47C179.266 101.698 178.734 102.03 178.276 102.45C176.324 104.018 172.835 103.971 170.365 102.78C169.322 102.269 168.404 101.535 167.676 100.631C165.128 97.4167 166.108 93.2221 166.272 92.4459C166.508 91.4364 166.866 90.4595 167.339 89.5371V89.5371C167.55 84.7231 169.424 82.8179 171.4 82.1828C172.905 76.9454 177.61 74.1699 177.61 74.1699C181.248 72.4842 184.007 72.2098 186.054 72.5548C186.487 71.6948 187.08 70.9257 187.802 70.2889C193.353 65.6866 198.606 69.6538 200.174 71.0729C201.431 70.3348 202.874 69.9779 204.33 70.0458C209.136 70.0223 211.167 73.4172 211.966 76.0673Z" fill="#1D1D1B"/>
<path d="M214.922 90.8155C214.783 91.7059 214.46 92.5577 213.973 93.3166C213.544 93.972 212.993 94.539 212.35 94.9866C213.385 93.5812 213.935 91.8782 213.918 90.1334C213.901 88.8344 213.547 87.5622 212.891 86.4405C212.358 85.3796 211.486 84.527 210.414 84.0178C209.388 83.5901 208.251 83.512 207.177 83.7954C206.102 84.0788 205.152 84.7081 204.471 85.5859C205.168 84.2395 206.325 83.188 207.732 82.6223C207.746 82.03 207.64 81.441 207.422 80.8902C207.204 80.3394 206.878 79.8379 206.462 79.4155C207.254 79.4426 208.005 79.7681 208.567 80.3265C209.128 80.8849 209.457 81.635 209.489 82.4262C210.766 82.6063 211.941 83.2243 212.813 84.1746C213.967 85.3427 214.706 86.8579 214.914 88.4869C216.263 88.4869 218.834 87.9459 218.732 84.7C218.764 84.6921 220.402 89.71 214.922 90.8155Z" fill="#1D1D1B"/>
<path d="M203.381 78.153C203.861 78.7196 204.24 79.364 204.502 80.0583C204.212 79.7917 200.864 76.8515 197.313 77.9257C196.468 78.1856 195.688 78.6211 195.023 79.2037C193.735 80.4206 192.97 82.0906 192.891 83.8609C192.37 82.7016 192.284 81.3935 192.648 80.1759C192.786 79.7554 192.978 79.3548 193.22 78.9841C192.608 78.4275 191.111 77.6905 187.936 78.9841C188.735 78.1271 189.787 77.5461 190.938 77.3249C192.089 77.1037 193.281 77.2536 194.341 77.7532C194.711 77.4413 195.12 77.1778 195.556 76.9691C195.713 76.8829 198.63 75.4011 201.413 76.6398C201.648 75.9499 202.629 73.6683 205.2 73.9976C204.517 74.43 203.979 75.0566 203.655 75.7971C203.331 76.5375 203.236 77.358 203.381 78.153V78.153Z" fill="#1D1D1B"/>
<path d="M0.0001095 36.2227V35.7523H0.580304C1.31193 35.7734 2.04019 35.6453 2.72075 35.376C3.26628 35.1552 3.72186 34.7576 4.01442 34.247C4.31525 33.6667 4.46109 33.0185 4.4378 32.3653V6.28807C4.46203 5.66477 4.31564 5.04668 4.01442 4.50046C3.71263 4.01383 3.2575 3.64145 2.72075 3.442C2.03529 3.19417 1.30875 3.07973 0.580304 3.10486H-0.03125V2.63444H12.6546C14.9443 2.57081 17.2271 2.91324 19.3974 3.64585C21.014 4.19097 22.4147 5.23738 23.396 6.63304C24.3066 8.06408 24.7655 9.736 24.7132 11.4314C24.7765 13.0033 24.3932 14.5609 23.6077 15.9239C22.9102 17.0616 21.9401 18.0074 20.7851 18.6759C19.6681 19.3228 18.475 19.8284 17.2334 20.1813L23.8664 30.5306C24.525 31.5342 25.0974 32.3731 25.5835 33.0474C25.9841 33.6079 26.4327 34.1326 26.9242 34.6155C27.2615 34.9565 27.6504 35.2423 28.0767 35.4622C28.421 35.6308 28.7989 35.7192 29.1822 35.721H29.3234V36.1914H28.6648C27.4589 36.2208 26.2522 36.1842 25.0503 36.0816C24.2412 36.005 23.4482 35.8067 22.6982 35.4936C22.0587 35.2024 21.4892 34.7773 21.0282 34.247C20.4527 33.5737 19.9285 32.8582 19.4601 32.1065L12.1842 20.5576H9.20479V32.3653C9.1815 33.0185 9.32734 33.6667 9.62818 34.247C9.92074 34.7576 10.3763 35.1552 10.9219 35.376C11.6024 35.6453 12.3307 35.7734 13.0623 35.7523H13.6738V36.2227H0.0001095ZM12.5448 20.0872C13.9937 20.1509 15.437 19.8687 16.7551 19.2639C17.8224 18.6959 18.6369 17.7471 19.0367 16.606C19.5472 15.0491 19.7756 13.4136 19.711 11.7764C19.7683 10.0762 19.5214 8.37957 18.9818 6.76633C18.5666 5.58291 17.729 4.59452 16.6297 3.99083C15.3119 3.35564 13.8573 3.05665 12.3959 3.12054H9.20479V20.0872H12.5448Z" fill="#1D1D1B"/>
<path d="M39.1869 36.693C37.1289 36.806 35.1033 36.143 33.5105 34.8348C32.8072 34.1906 32.255 33.3991 31.8931 32.5168C31.5312 31.6345 31.3687 30.6831 31.4171 29.7307C31.3512 28.6757 31.5618 27.6217 32.0279 26.673C32.4941 25.7242 33.1996 24.9135 34.075 24.3208C35.8469 23.1291 38.5362 22.4705 42.1428 22.345L46.063 22.2039V18.6757C46.0844 17.2279 45.99 15.7806 45.7808 14.3478C45.6795 13.3918 45.2467 12.5014 44.5576 11.831C43.7262 11.2338 42.7077 10.9555 41.688 11.047C39.8691 11.047 38.7008 11.6115 38.1834 12.7405C37.5812 14.442 37.3253 16.2467 37.4307 18.0485C36.3927 18.1165 35.3567 17.8881 34.4435 17.3899C34.097 17.1524 33.8205 16.8264 33.6426 16.4459C33.4648 16.0653 33.3921 15.6441 33.4321 15.2259C33.4108 14.7177 33.5033 14.2112 33.7027 13.7432C33.902 13.2753 34.2033 12.8577 34.5846 12.521C35.4633 11.7733 36.5096 11.2488 37.6345 10.9921C39.022 10.667 40.4434 10.509 41.8684 10.5217C44.7537 10.5217 46.9098 11.1333 48.3367 12.3564C49.7637 13.5795 50.4772 15.6702 50.4772 18.6287V32.7414C50.4549 33.3448 50.5508 33.9467 50.7594 34.5133C50.8465 34.7244 50.9745 34.9162 51.136 35.0777C51.2974 35.2391 51.4892 35.3671 51.7003 35.4542C52.2403 35.6602 52.8161 35.7562 53.3938 35.7365H53.5349V36.2069H46.4315V31.2674H46.3374C46.0849 32.3986 45.5692 33.4543 44.8321 34.3487C44.1656 35.13 43.3176 35.7358 42.3623 36.1128C41.3498 36.5043 40.2725 36.7012 39.1869 36.693V36.693ZM40.1278 36.0344C41.2215 36.0539 42.2956 35.7423 43.2091 35.1406C44.0955 34.5361 44.8067 33.7086 45.2711 32.7414C45.7847 31.7364 46.0534 30.6241 46.0552 29.4955V22.7527L43.0444 22.8939C40.3787 23.0193 38.5493 23.6309 37.5561 24.7285C36.563 25.8262 36.0403 27.6765 35.988 30.2795C35.9661 31.3422 36.117 32.4014 36.4349 33.4157C36.6757 34.1987 37.1623 34.8833 37.8227 35.3679C38.5025 35.8256 39.3087 36.0586 40.1278 36.0344V36.0344Z" fill="#1D1D1B"/>
<path d="M56.875 36.2223V35.7519H57.2513C58.0395 35.7858 58.8257 35.6495 59.5564 35.3521C60.1182 35.0818 60.5496 34.5996 60.756 34.0113C61.0221 33.1757 61.1414 32.3004 61.1088 31.424V15.6962C61.1409 14.843 61.0215 13.9909 60.756 13.1794C60.5556 12.6084 60.1428 12.1367 59.6035 11.8622C58.8904 11.5609 58.1186 11.4243 57.3454 11.4623H57.1102V10.9919H65.4838V15.4139H65.5779C65.8757 14.1824 66.5111 13.0583 67.4126 12.168C68.138 11.5086 69.0209 11.0469 69.9764 10.8273C70.8175 10.6332 71.6771 10.5307 72.5402 10.5215C75.3314 10.5215 77.4091 11.2506 78.7734 12.709C80.1376 14.1673 80.8197 16.5194 80.8197 19.7653V31.424C80.7891 32.2986 80.9003 33.1723 81.149 34.0113C81.3255 34.587 81.723 35.0691 82.2545 35.3521C82.9114 35.6473 83.6284 35.7843 84.3479 35.7519H84.5831V36.2223H76.3977V18.1894C76.4699 16.4566 76.0803 14.7356 75.2687 13.2029C74.516 11.9171 73.2092 11.2742 71.3485 11.2742C70.0798 11.2023 68.8325 11.6237 67.8673 12.4502C66.9956 13.2755 66.3688 14.3255 66.0562 15.4845C65.6886 16.7585 65.5064 18.0787 65.5152 19.4047V31.424C65.4826 32.3004 65.6019 33.1757 65.868 34.0113C66.0688 34.5953 66.4912 35.0769 67.0441 35.3521C67.7502 35.6488 68.5133 35.7854 69.2786 35.7519H69.5138V36.2223H56.875Z" fill="#1D1D1B"/>
<path d="M97.943 36.6929C96.1056 36.7518 94.296 36.2335 92.7683 35.2111C91.2693 34.1044 90.1514 32.5591 89.5694 30.7891C88.7869 28.4536 88.4207 25.9989 88.4874 23.5367C88.4205 21.0866 88.7786 18.6435 89.5459 16.3157C90.0752 14.5549 91.1825 13.0238 92.689 11.9697C94.1955 10.9156 96.0133 10.3999 97.8489 10.5059C99.6795 10.3985 101.479 11.0152 102.859 12.223C104.066 13.3677 104.874 15.1318 105.282 17.5153H105.376C105.344 16.3862 105.321 15.2807 105.305 14.1988C105.289 13.1168 105.289 12.1289 105.305 11.2351V4.60995C105.334 3.88541 105.206 3.16319 104.929 2.49304C104.682 1.9625 104.246 1.54317 103.706 1.31698C102.987 1.03842 102.218 0.910331 101.448 0.940638H101.307V0.470215H109.727V32.1611C109.701 32.8702 109.829 33.5766 110.104 34.231C110.356 34.7659 110.801 35.1858 111.35 35.4071C112.062 35.6814 112.822 35.8094 113.585 35.7834H113.961V36.2538H105.337V29.5895H105.242C104.835 32.0043 104.027 33.7919 102.82 34.9523C102.162 35.5499 101.392 36.0113 100.555 36.31C99.7183 36.6087 98.8305 36.7389 97.943 36.6929V36.6929ZM98.727 35.9873C99.7602 36.022 100.781 35.7501 101.66 35.206C102.539 34.6619 103.237 33.8698 103.667 32.9295C104.712 30.891 105.235 27.7705 105.235 23.5681C105.281 21.2753 105.052 18.9852 104.552 16.7469C104.258 15.2139 103.551 13.7906 102.506 12.6307C102.012 12.1616 101.428 11.7969 100.789 11.5585C100.151 11.32 99.4707 11.2127 98.7897 11.2429C98.1798 11.2155 97.5704 11.3094 96.997 11.5194C96.4237 11.7294 95.8977 12.0511 95.4497 12.466C94.4652 13.5634 93.8269 14.9273 93.6151 16.3862C93.1921 18.7374 93.003 21.1247 93.0505 23.5132C93.0036 25.9328 93.1927 28.3512 93.6151 30.7342C93.8234 32.2175 94.4611 33.6075 95.4497 34.7328C95.886 35.1527 96.4025 35.4802 96.9683 35.6957C97.5342 35.9113 98.1377 36.0104 98.7427 35.9873H98.727Z" fill="#1D1D1B"/>
<path d="M128.285 36.6928C124.898 36.6928 122.232 35.6108 120.288 33.4469C118.344 31.2829 117.382 27.9795 117.403 23.5366C117.403 19.146 118.336 15.8765 120.202 13.7283C122.068 11.58 124.82 10.5059 128.458 10.5059C131.845 10.5059 134.511 11.58 136.455 13.7283C138.399 15.8765 139.366 19.146 139.356 23.5366C139.356 27.9586 138.423 31.2516 136.557 33.4155C134.691 35.5795 131.934 36.6719 128.285 36.6928ZM128.379 36.2224C129.734 36.2857 131.063 35.8317 132.096 34.9522C133.175 33.8443 133.889 32.4325 134.142 30.9066C134.618 28.4905 134.831 26.0299 134.777 23.568C134.83 21.1216 134.617 18.6768 134.142 16.2764C133.893 14.7562 133.178 13.3508 132.096 12.2543C131.04 11.3843 129.698 10.9398 128.332 11.0076C126.981 10.944 125.655 11.3888 124.616 12.2543C123.534 13.3508 122.819 14.7562 122.57 16.2764C122.095 18.6768 121.882 21.1216 121.934 23.568C121.881 26.0299 122.094 28.4905 122.57 30.9066C122.823 32.4372 123.547 33.851 124.639 34.9522C125.683 35.8298 127.017 36.2831 128.379 36.2224V36.2224Z" fill="#1D1D1B"/>
<path d="M142.539 36.2225V35.7521H143.151C143.921 35.7824 144.69 35.6543 145.409 35.3757C145.948 35.1495 146.385 34.7302 146.632 34.1997C146.906 33.5452 147.035 32.8389 147.008 32.1298V4.60995C147.037 3.88541 146.909 3.16319 146.632 2.49304C146.385 1.9625 145.948 1.54317 145.409 1.31698C144.69 1.03842 143.921 0.910331 143.151 0.940638H142.539V0.470215H151.43V31.8946C151.4 32.6651 151.528 33.4336 151.806 34.1526C152.044 34.7009 152.481 35.1382 153.03 35.3757C153.749 35.6543 154.517 35.7824 155.288 35.7521H155.899V36.2225H142.539Z" fill="#1D1D1B"/>
<path d="M157.781 36.2225V35.7521H158.393C159.163 35.7824 159.932 35.6543 160.651 35.3758C161.191 35.1496 161.627 34.7302 161.874 34.1997C162.144 33.5549 162.272 32.8598 162.25 32.1612V11.4782H157.969V10.9921H162.25V8.63996C162.25 5.84877 162.987 3.70834 164.461 2.21866C165.935 0.728986 168.162 -0.0054001 171.141 0.0155077C172.27 -0.0139798 173.396 0.12879 174.481 0.43889C175.234 0.645426 175.922 1.03925 176.481 1.58359C176.925 2.04384 177.17 2.66081 177.163 3.30064C177.177 3.82296 177.002 4.33282 176.669 4.73543C176.303 5.15139 175.832 5.46031 175.305 5.62924C174.66 5.84316 173.984 5.94655 173.305 5.93502C173.305 3.92787 173.078 2.5166 172.623 1.7012C172.387 1.29612 172.04 0.966285 171.624 0.749843C171.208 0.533402 170.739 0.439187 170.271 0.478092C169.688 0.441612 169.107 0.587217 168.61 0.894793C168.113 1.20237 167.723 1.65674 167.496 2.19514C166.973 3.33984 166.712 5.35483 166.712 8.2401V10.9921H173.345V11.4625H166.712V31.8476C166.681 32.6181 166.809 33.3866 167.088 34.1056C167.331 34.6582 167.777 35.0961 168.334 35.3287C169.046 35.6031 169.806 35.7311 170.569 35.705H172.286V36.1755L157.781 36.2225Z" fill="#1D1D1B"/>
<path d="M186.242 36.2226V35.7522H188.077C188.808 35.7733 189.537 35.6452 190.217 35.3759C190.763 35.1551 191.218 34.7575 191.511 34.2469C191.812 33.6666 191.958 33.0184 191.934 32.3652V6.28796C191.959 5.66466 191.812 5.04657 191.511 4.50035C191.209 4.01373 190.754 3.64135 190.217 3.44189C189.533 3.18873 188.806 3.06897 188.077 3.08908H186.242V2.61865H195.808L207.803 30.9382L218.2 2.61865H226.824V3.08908H226.213C225.481 3.06801 224.753 3.19606 224.072 3.46542C223.527 3.6862 223.071 4.08379 222.779 4.59444C222.478 5.17474 222.332 5.82291 222.355 6.47613V32.3495C222.332 33.0027 222.478 33.6509 222.779 34.2312C223.059 34.7411 223.5 35.1438 224.033 35.3759C224.714 35.6452 225.442 35.7733 226.174 35.7522H226.785V36.2226H214.24V35.7522H214.382C215.007 35.773 215.628 35.644 216.193 35.3759C216.691 35.1286 217.101 34.7346 217.369 34.2469C217.67 33.6666 217.815 33.0184 217.792 32.3652V5.08054L206.376 36.2226H205.216L192.405 5.69209V32.3495C192.381 33.0027 192.527 33.6509 192.828 34.2312C193.121 34.7418 193.576 35.1394 194.122 35.3602C194.802 35.6296 195.531 35.7576 196.262 35.7365H197.109V36.207L186.242 36.2226Z" fill="#1D1D1B"/>
<path d="M238.695 36.693C236.639 36.804 234.617 36.1411 233.026 34.8348C232.323 34.1906 231.771 33.3991 231.409 32.5168C231.047 31.6345 230.884 30.6831 230.933 29.7307C230.867 28.6757 231.077 27.6217 231.544 26.673C232.01 25.7242 232.715 24.9135 233.591 24.3208C235.363 23.1291 238.052 22.4705 241.658 22.345L245.579 22.2039V18.6757C245.6 17.2279 245.506 15.7806 245.296 14.3478C245.195 13.3918 244.762 12.5014 244.073 11.831C243.242 11.2338 242.223 10.9555 241.204 11.047C239.385 11.047 238.216 11.6115 237.699 12.7405C237.085 14.4423 236.819 16.2498 236.915 18.0563C235.877 18.1243 234.841 17.8959 233.928 17.3977C233.581 17.1602 233.305 16.8342 233.127 16.4537C232.949 16.0732 232.876 15.6519 232.916 15.2338C232.895 14.7256 232.988 14.219 233.187 13.7511C233.386 13.2831 233.688 12.8656 234.069 12.5288C234.954 11.7749 236.008 11.2475 237.142 10.9921C238.53 10.667 239.951 10.509 241.376 10.5217C244.261 10.5217 246.418 11.1333 247.845 12.3564C249.271 13.5795 249.985 15.6702 249.985 18.6287V32.7414C249.961 33.35 250.057 33.9575 250.267 34.529C250.354 34.7401 250.482 34.9319 250.644 35.0934C250.805 35.2548 250.997 35.3828 251.208 35.4699C251.748 35.6759 252.324 35.7719 252.902 35.7521H253.043V36.2226H245.939V31.2831H245.845C245.593 32.4143 245.077 33.4699 244.34 34.3644C243.673 35.1457 242.825 35.7515 241.87 36.1285C240.857 36.5146 239.779 36.7062 238.695 36.693V36.693ZM239.636 36.0344C240.729 36.0539 241.803 35.7423 242.717 35.1406C243.615 34.5403 244.337 33.7124 244.81 32.7414C245.324 31.7364 245.593 30.6241 245.594 29.4955V22.7527L242.584 22.8939C239.918 23.0193 238.075 23.6309 237.056 24.7285C236.037 25.8262 235.527 27.6765 235.527 30.2795C235.505 31.3422 235.656 32.4014 235.974 33.4157C236.213 34.2016 236.7 34.8891 237.362 35.3758C238.034 35.8244 238.828 36.0544 239.636 36.0344V36.0344Z" fill="#1D1D1B"/>
<path d="M268.472 36.6927C266.513 36.7332 264.573 36.2888 262.827 35.3991C261.124 34.4583 259.783 32.9768 259.017 31.1888C258.018 28.7656 257.552 26.1556 257.652 23.5365C257.538 20.9015 258.012 18.274 259.04 15.8451C259.807 14.1152 261.121 12.6853 262.78 11.7759C264.426 10.9423 266.251 10.5224 268.096 10.5528C269.407 10.5519 270.712 10.726 271.977 11.0703C273.127 11.3495 274.199 11.8856 275.113 12.6384C275.514 12.9831 275.832 13.4137 276.044 13.8983C276.256 14.3829 276.356 14.9089 276.336 15.4374C276.365 16.0339 276.191 16.6225 275.842 17.1074C275.479 17.5531 274.986 17.8738 274.431 18.0247C273.688 18.2304 272.92 18.3255 272.149 18.307C272.175 16.9264 272.057 15.5469 271.797 14.1908C271.653 13.2706 271.212 12.4226 270.542 11.7759C269.819 11.2136 268.916 10.9347 268.002 10.9919C266.906 10.9831 265.841 11.3575 264.991 12.0503C263.935 13.0624 263.22 14.3775 262.945 15.8137C262.384 18.348 262.139 20.942 262.216 23.5365C262.156 26.0255 262.393 28.5127 262.921 30.9457C263.21 32.4986 264.004 33.9126 265.179 34.9678C266.333 35.8209 267.744 36.2526 269.178 36.1909C270.136 36.2055 271.087 36.0296 271.977 35.6735C272.856 35.2888 273.607 34.6603 274.141 33.8623C274.843 32.7817 275.33 31.5758 275.576 30.3106C275.722 30.3362 275.863 30.3911 275.988 30.4719C276.113 30.5527 276.221 30.6578 276.305 30.7811C276.5 31.101 276.59 31.4737 276.564 31.8474C276.535 32.6737 276.219 33.4641 275.67 34.0819C274.942 34.9121 274.021 35.5503 272.988 35.94C271.547 36.4858 270.012 36.7415 268.472 36.6927V36.6927Z" fill="#1D1D1B"/>
<path d="M279.057 36.2225V35.7521H279.433C280.221 35.786 281.007 35.6496 281.738 35.3522C282.3 35.0819 282.731 34.5997 282.938 34.0115C283.204 33.1759 283.323 32.3005 283.29 31.4241V5.17446C283.323 4.32128 283.203 3.46916 282.938 2.65769C282.737 2.08671 282.324 1.61496 281.785 1.3405C281.072 1.03924 280.3 0.902566 279.527 0.940638H279.292V0.470215H287.712V13.5951C287.712 14.1909 287.697 14.8025 287.665 15.4297H287.76C288.057 14.1982 288.693 13.0741 289.594 12.1838C290.32 11.5244 291.203 11.0627 292.158 10.8431C292.999 10.649 293.859 10.5465 294.722 10.5373C297.513 10.5373 299.591 11.2665 300.955 12.7248C302.319 14.1831 303.001 16.5352 303.001 19.7811V31.4241C302.971 32.2987 303.082 33.1725 303.331 34.0115C303.507 34.5871 303.905 35.0693 304.436 35.3522C305.093 35.6474 305.81 35.7844 306.53 35.7521H306.765V36.2225H298.579V18.1895C298.652 16.4567 298.262 14.7358 297.45 13.203C296.698 11.9172 295.391 11.2743 293.53 11.2743C292.261 11.2024 291.014 11.6238 290.049 12.4504C289.177 13.2756 288.55 14.3257 288.238 15.4846C287.87 16.7586 287.688 18.0789 287.697 19.4048V31.4241C287.664 32.3005 287.784 33.1759 288.05 34.0115C288.25 34.5954 288.673 35.077 289.226 35.3522C289.932 35.649 290.695 35.7855 291.46 35.7521H291.695V36.2225H279.057Z" fill="#1D1D1B"/>
<path d="M318.197 36.693C316.141 36.8056 314.118 36.1425 312.528 34.8348C311.825 34.1906 311.273 33.3991 310.911 32.5168C310.549 31.6345 310.386 30.6831 310.435 29.7307C310.369 28.6757 310.579 27.6217 311.046 26.673C311.512 25.7242 312.217 24.9135 313.093 24.3208C314.864 23.1291 317.554 22.4705 321.16 22.345L325.081 22.2039V18.6757C325.102 17.2279 325.008 15.7806 324.798 14.3478C324.697 13.3918 324.264 12.5014 323.575 11.831C322.744 11.2338 321.725 10.9555 320.706 11.047C318.887 11.047 317.718 11.6115 317.201 12.7405C316.587 14.4423 316.32 16.2498 316.417 18.0563C315.379 18.1243 314.343 17.8959 313.43 17.3977C313.083 17.1602 312.807 16.8342 312.629 16.4537C312.451 16.0732 312.378 15.6519 312.418 15.2338C312.397 14.7256 312.489 14.219 312.689 13.7511C312.888 13.2831 313.19 12.8656 313.571 12.5288C314.456 11.7749 315.51 11.2475 316.644 10.9921C318.032 10.667 319.453 10.509 320.878 10.5217C323.763 10.5217 325.912 11.1333 327.346 12.3564C328.781 13.5795 329.487 15.6807 329.487 18.6287V32.7414C329.463 33.35 329.558 33.9575 329.769 34.529C329.856 34.7401 329.984 34.9319 330.146 35.0934C330.307 35.2548 330.499 35.3828 330.71 35.4699C331.25 35.6759 331.826 35.7719 332.404 35.7521H332.545V36.2226H325.441V31.2831H325.347C325.095 32.4143 324.579 33.4699 323.842 34.3644C323.175 35.1457 322.327 35.7515 321.372 36.1285C320.358 36.5146 319.281 36.7062 318.197 36.693V36.693ZM319.138 36.0344C320.231 36.0529 321.305 35.7414 322.219 35.1406C323.117 34.5403 323.839 33.7124 324.312 32.7414C324.826 31.7364 325.094 30.6241 325.096 29.4955V22.7527L322.086 22.8939C319.42 23.0193 317.59 23.6309 316.597 24.7285C315.604 25.8262 315.081 27.6765 315.029 30.2795C315.007 31.3422 315.158 32.4014 315.476 33.4157C315.717 34.1987 316.203 34.8833 316.864 35.3679C317.535 35.8193 318.329 36.0521 319.138 36.0344Z" fill="#1D1D1B"/>
<path d="M346.611 36.6929C344.771 36.7529 342.958 36.2346 341.428 35.2111C339.931 34.1022 338.814 32.5577 338.229 30.7891C337.447 28.4536 337.081 25.9989 337.147 23.5367C337.082 21.0861 337.443 18.6428 338.214 16.3157C338.741 14.5534 339.847 13.0207 341.354 11.9661C342.861 10.9116 344.681 10.3971 346.517 10.5059C348.345 10.3989 350.142 11.0157 351.519 12.223C352.726 13.3677 353.534 15.1318 353.942 17.5153H354.036C354.036 16.3862 353.981 15.2807 353.973 14.1988C353.965 13.1168 353.973 12.1289 353.973 11.2351V4.60995C354 3.88627 353.875 3.16499 353.604 2.49304C353.355 1.96107 352.916 1.54155 352.374 1.31698C351.655 1.03711 350.886 0.908981 350.115 0.940638H349.982V0.470215H358.403V32.1611C358.374 32.8697 358.5 33.5759 358.771 34.231C359.024 34.7659 359.469 35.1858 360.018 35.4071C360.733 35.682 361.495 35.81 362.26 35.7834H362.629V36.2538H354.004V29.5895H353.91C353.497 32.0043 352.69 33.7919 351.488 34.9523C350.829 35.5495 350.06 36.0107 349.223 36.3094C348.386 36.6081 347.498 36.7384 346.611 36.6929V36.6929ZM347.395 35.9873C348.428 36.022 349.448 35.7501 350.327 35.206C351.206 34.6619 351.905 33.8698 352.334 32.9295C353.38 30.891 353.902 27.7705 353.902 23.5681C353.948 21.2753 353.719 18.9852 353.22 16.7469C352.913 15.209 352.189 13.7851 351.127 12.6307C350.634 12.1614 350.052 11.7966 349.414 11.5581C348.777 11.3196 348.098 11.2124 347.418 11.2429C346.807 11.2148 346.196 11.3085 345.622 11.5185C345.047 11.7284 344.52 12.0505 344.07 12.466C343.089 13.5652 342.451 14.9282 342.236 16.3862C341.832 18.7473 341.658 21.1421 341.718 23.5367C341.673 25.9559 341.86 28.3739 342.275 30.7577C342.487 32.24 343.124 33.629 344.11 34.7563C344.548 35.1712 345.066 35.4939 345.632 35.7054C346.197 35.9168 346.799 36.0127 347.403 35.9873H347.395Z" fill="#1D1D1B"/>
<path d="M376.922 36.6927C373.542 36.6927 370.869 35.6107 368.924 33.4468C366.98 31.2828 366.008 27.9585 366.008 23.5679C366.008 19.1772 366.941 15.9078 368.815 13.7595C370.689 11.6112 373.425 10.5371 377.071 10.5371C380.447 10.5371 383.11 11.6112 385.06 13.7595C387.01 15.9078 387.992 19.1668 388.008 23.5365C388.008 27.9585 387.072 31.2515 385.201 33.4154C383.343 35.6107 380.583 36.6927 376.922 36.6927ZM377.016 36.2223C378.371 36.2856 379.699 35.8316 380.732 34.9521C381.817 33.847 382.534 32.4342 382.786 30.9065C383.259 28.49 383.469 26.0295 383.414 23.5679C383.468 21.1218 383.258 18.6771 382.786 16.2763C382.538 14.754 381.82 13.3475 380.732 12.2542C379.653 11.445 378.341 11.0075 376.992 11.0075C375.644 11.0075 374.331 11.445 373.252 12.2542C372.17 13.3507 371.455 14.7561 371.206 16.2763C370.734 18.6771 370.524 21.1218 370.579 23.5679C370.523 26.0295 370.733 28.49 371.206 30.9065C371.459 32.439 372.185 33.8538 373.284 34.9521C374.329 35.8362 375.672 36.2902 377.039 36.2223H377.016Z" fill="#1D1D1B"/>
<path d="M135.232 45.7017H142.187V46.6033H135.232V45.7017ZM138.22 46.1015H139.2V55.51H138.22V46.1015Z" fill="#1D1D1B"/>
<path d="M145.001 45.7017H145.973V55.5492H145.001V45.7017ZM145.667 45.7017H151.328V46.6033H145.667V45.7017ZM145.667 50.2021H150.583V51.1115H145.667V50.2021ZM145.667 54.6476H151.328V55.5492H145.667V54.6476Z" fill="#1D1D1B"/>
<path d="M154.747 45.6939H155.727V55.5493H154.747V45.6939ZM155.351 50.4766H158.714C159.052 50.4859 159.386 50.4018 159.679 50.2335C159.958 50.077 160.182 49.839 160.322 49.5514C160.484 49.2394 160.565 48.8915 160.557 48.54C160.566 48.1867 160.488 47.8366 160.329 47.5207C160.187 47.2353 159.963 46.9982 159.687 46.8386C159.389 46.6764 159.053 46.5953 158.714 46.6034H155.351V45.6939H158.659C159.183 45.684 159.7 45.8053 160.165 46.0467C160.59 46.2794 160.939 46.6308 161.168 47.0581C161.411 47.5195 161.532 48.0347 161.521 48.5557C161.532 49.0741 161.41 49.5867 161.168 50.0453C160.936 50.4711 160.585 50.8199 160.157 51.0489C159.696 51.2913 159.18 51.4126 158.659 51.4017H155.351V50.4766ZM158.487 51.0803L159.389 50.7667L161.913 55.5493H160.745L158.487 51.0803Z" fill="#1D1D1B"/>
<path d="M167.582 45.7017H168.766L172.396 55.5492H171.314L168.178 46.7209L165.042 55.5492H163.96L167.582 45.7017ZM165.63 52.2484H170.813V53.1579H165.63V52.2484Z" fill="#1D1D1B"/>
<path d="M175.359 45.7016H176.339V55.5492H175.359V45.7016ZM176.073 50.8214H179.209C179.567 50.8293 179.92 50.7369 180.228 50.5548C180.521 50.3818 180.756 50.1252 180.903 49.8178C181.071 49.477 181.155 49.1003 181.146 48.7202C181.156 48.3374 181.072 47.9579 180.903 47.6147C180.754 47.3066 180.52 47.0479 180.228 46.8698C179.919 46.6911 179.567 46.599 179.209 46.6033H176.073V45.7016H179.209C179.756 45.6882 180.296 45.818 180.777 46.078C181.218 46.3245 181.58 46.6916 181.82 47.1364C182.059 47.6246 182.183 48.161 182.183 48.7045C182.183 49.248 182.059 49.7844 181.82 50.2726C181.58 50.7174 181.218 51.0845 180.777 51.331C180.296 51.591 179.756 51.7208 179.209 51.7074H176.073V50.8214Z" fill="#1D1D1B"/>
<path d="M186.501 55.5492H185.528V45.7017H186.501V55.5492Z" fill="#1D1D1B"/>
<path d="M193.15 45.7017H194.333L197.964 55.5492H196.882L193.745 46.7209L190.609 55.5492H189.535L193.15 45.7017ZM191.197 52.2484H196.38V53.1579H191.197V52.2484Z" fill="#1D1D1B"/>
<path d="M206.094 45.7016H207.074V55.5491H206.094V45.7016ZM206.878 54.6475H209.583C210.227 54.701 210.871 54.5353 211.41 54.1771C211.6 54.0149 211.751 53.8111 211.85 53.5813C211.95 53.3516 211.995 53.102 211.982 52.852V52.852C211.991 52.5055 211.919 52.1617 211.77 51.8485C211.624 51.5644 211.387 51.3379 211.096 51.2056C210.727 51.0385 210.324 50.9606 209.92 50.9782H206.878V50.0452H209.92C210.44 50.0858 210.957 49.9322 211.37 49.614C211.69 49.2594 211.864 48.7964 211.855 48.3188C211.846 47.8413 211.656 47.3849 211.323 47.0423C210.866 46.7217 210.313 46.5669 209.755 46.6032H206.901V45.7016H209.975C210.515 45.6863 211.052 45.7964 211.543 46.023C211.952 46.2242 212.289 46.5474 212.507 46.9482C212.728 47.3879 212.836 47.8756 212.821 48.3673C212.824 48.6939 212.757 49.0175 212.625 49.316C212.495 49.623 212.29 49.8925 212.029 50.1001C211.734 50.3215 211.39 50.4669 211.025 50.5234C211.396 50.5644 211.75 50.6999 212.053 50.9168C212.357 51.1337 212.599 51.4248 212.758 51.7622C212.916 52.1036 212.997 52.4758 212.993 52.852V52.852C213.003 53.3455 212.882 53.8326 212.641 54.2633C212.405 54.6711 212.053 54.9988 211.629 55.2042C211.152 55.432 210.629 55.5448 210.1 55.5335H206.909L206.878 54.6475Z" fill="#1D1D1B"/>
<path d="M216.514 45.6936H217.494V55.549H216.514V45.6936ZM217.117 50.4763H220.481C220.819 50.4856 221.152 50.4015 221.445 50.2332C221.724 50.0767 221.948 49.8387 222.088 49.5511C222.243 49.2364 222.324 48.8904 222.323 48.5397C222.329 48.1868 222.251 47.8376 222.096 47.5204C221.951 47.2369 221.728 47.0003 221.453 46.8383C221.155 46.6772 220.82 46.5961 220.481 46.6031H217.117V45.6936H220.426C220.947 45.682 221.463 45.8035 221.924 46.0464C222.351 46.2769 222.7 46.6289 222.927 47.0579C223.176 47.5172 223.3 48.0333 223.288 48.5554C223.3 49.0749 223.176 49.5886 222.927 50.0451C222.698 50.4703 222.349 50.8191 221.924 51.0486C221.462 51.291 220.947 51.4124 220.426 51.4014H217.117V50.4763ZM220.254 51.08L221.155 50.7664L223.672 55.549H222.512L220.254 51.08Z" fill="#1D1D1B"/>
<path d="M227.021 45.7017H228.001V55.5492H227.021V45.7017ZM227.695 45.7017H233.348V46.6033H227.695V45.7017ZM227.695 50.2021H232.603V51.1115H227.695V50.2021ZM227.695 54.6476H233.348V55.5492H227.695V54.6476Z" fill="#1D1D1B"/>
<path d="M235.794 45.7017H236.829L239.667 54.1693L242.505 45.7017H243.532L240.122 55.5492H239.212L235.794 45.7017Z" fill="#1D1D1B"/>
<path d="M246.449 45.7017H247.421V55.5492H246.449V45.7017ZM247.116 45.7017H252.776V46.6033H247.116V45.7017ZM247.116 50.2021H252.032V51.1115H247.116V50.2021ZM247.116 54.6476H252.776V55.5492H247.116V54.6476Z" fill="#1D1D1B"/>
</svg>
