<svg width="27" height="26" viewBox="0 0 27 26" fill="none" xmlns="http://www.w3.org/2000/svg">
<path d="M0.5 26C0.922173 24.7533 1.32392 23.5635 1.7269 22.3738C2.06117 21.3877 2.40287 20.4047 2.72477 19.4148C2.7599 19.282 2.74377 19.1408 2.67958 19.0193C1.29482 16.5946 0.714182 13.9903 1.06331 11.2239C1.59567 7.00778 3.74863 3.82353 7.40767 1.67614C9.54391 0.423242 11.882 -0.112831 14.3475 0.0196399C17.923 0.212775 20.9339 1.64395 23.332 4.31875C24.9501 6.12134 25.9678 8.23097 26.3355 10.621C26.9316 14.5004 25.9703 17.9713 23.4013 20.9488C21.2874 23.3982 18.5897 24.8257 15.3813 25.2392C12.743 25.5791 10.2248 25.1389 7.85275 23.9188C7.7661 23.8685 7.66941 23.8379 7.56957 23.8292C7.46974 23.8206 7.36922 23.834 7.2752 23.8687C5.10862 24.5682 2.93647 25.251 0.765561 25.9381C0.698707 25.956 0.629376 25.9684 0.5 26ZM3.73687 22.8374C3.85201 22.8096 3.90214 22.8003 3.94981 22.7848C5.13709 22.4066 6.32252 22.0215 7.51414 21.6563C7.67199 21.608 7.89917 21.5975 8.02855 21.6774C9.38153 22.5179 10.9034 23.0493 12.4855 23.2336C15.1473 23.5431 17.5931 22.9346 19.7968 21.4322C21.8965 20.0011 23.3487 18.0542 24.0377 15.5998C24.9415 12.3809 24.4363 9.36068 22.5285 6.61284C21.1537 4.62826 19.2793 3.25836 16.9691 2.54092C14.0467 1.63343 11.2165 1.92066 8.53243 3.39022C6.82517 4.3237 5.47818 5.65212 4.48217 7.33339C3.32336 9.28826 2.87271 11.4016 3.06956 13.653C3.23174 15.51 3.87058 17.1987 4.9322 18.729C5.00086 18.8481 5.02018 18.9894 4.98605 19.1227C4.85606 19.5671 4.69388 20.0023 4.54531 20.4418C4.28161 21.2218 4.01914 22.0011 3.73687 22.8374Z" fill="#071E2E"/>
<path d="M9.83449 6.92696C10.4325 6.77406 10.6652 7.17457 10.8584 7.66421C11.1258 8.34514 11.4155 9.01863 11.7064 9.68903C11.8246 9.95955 11.8302 10.2146 11.6618 10.4511C11.4347 10.7674 11.1957 11.08 10.9394 11.3759C10.7457 11.5969 10.7265 11.8049 10.8726 12.0494C11.8853 13.7461 13.2979 14.9712 15.1438 15.6911C15.4125 15.7957 15.6223 15.7443 15.8012 15.5208C16.1039 15.1432 16.4203 14.778 16.7155 14.3911C16.9099 14.1392 17.1408 14.0754 17.4206 14.2054C18.2705 14.6028 19.1167 15.0101 19.9654 15.4069C20.2161 15.5252 20.2434 15.7381 20.2341 15.9783C20.1814 17.3463 19.4857 18.0731 18.0341 18.525C17.4113 18.7187 16.796 18.6624 16.177 18.486C14.2487 17.9387 12.4511 17.1569 10.9964 15.7208C9.76949 14.51 8.66206 13.2051 7.93409 11.6352C7.26369 10.1861 7.31879 8.77845 8.3965 7.50017C8.77287 7.05448 9.20618 6.79511 9.83449 6.92696Z" fill="#071E2E"/>
</svg>
