<svg width="63" height="63" viewBox="0 0 63 63" fill="none" xmlns="http://www.w3.org/2000/svg">
<g filter="url(#filter0_d_32_473)">
<path fill-rule="evenodd" clip-rule="evenodd" d="M31.7377 8.18408C19.2505 8.18408 9.1001 18.2615 9.1001 30.6501C9.09711 35.388 10.6079 40.003 13.4122 43.8219L10.5843 52.1649L19.2834 49.401C22.984 51.8294 27.3151 53.1203 31.7414 53.1143C44.2231 53.1143 54.379 43.0369 54.379 30.6592C54.379 18.2815 44.2213 8.19321 31.7414 8.19321L31.7377 8.18408Z" fill="url(#paint0_linear_32_473)"/>
<path fill-rule="evenodd" clip-rule="evenodd" d="M57.26 30.4582C57.26 44.5154 45.7751 55.9145 31.6065 55.9145C27.2717 55.9218 23.0055 54.8321 19.2051 52.7471L5 57.26L9.62975 43.6026C7.21622 39.6435 5.94262 35.0949 5.94932 30.4582C5.94932 16.401 17.4361 5 31.6065 5C45.7769 5 57.26 16.3973 57.26 30.4582ZM31.6065 9.05469C19.709 9.05469 10.035 18.6538 10.035 30.4582C10.0344 34.9732 11.4769 39.3702 14.1518 43.0074L11.4499 50.9543L19.7382 48.3218C23.2631 50.635 27.3885 51.865 31.6047 51.8598C43.4967 51.8598 53.1725 42.2589 53.1725 30.4582C53.1725 18.6574 43.4967 9.05469 31.6047 9.05469H31.6065ZM44.5683 36.3221C44.4095 36.061 43.9896 35.904 43.3634 35.5918C42.7373 35.2796 39.641 33.7662 39.0659 33.5635C38.4909 33.3609 38.0673 33.2514 37.6511 33.8739C37.2349 34.4964 36.0245 35.904 35.6575 36.3221C35.2906 36.7401 34.9273 36.7894 34.2956 36.4772C33.664 36.165 31.6393 35.5042 29.2387 33.3737C27.8658 32.1133 26.6866 30.6572 25.739 29.0525C25.3738 28.4299 25.7025 28.0922 26.0128 27.7745C26.2976 27.4934 26.6426 27.0443 26.9585 26.6792C27.2166 26.3629 27.4281 26.0112 27.5865 25.6349C27.671 25.4628 27.7105 25.272 27.7013 25.0804C27.692 24.8888 27.6343 24.7027 27.5335 24.5395C27.3765 24.2292 26.1187 21.1585 25.5947 19.908C25.0708 18.6574 24.5487 18.7067 24.1799 18.7067C23.8294 18.7228 23.4801 18.7594 23.1338 18.8162C23.1338 18.8162 21.8741 18.9714 21.3082 19.5958C20.7423 20.2201 19.1083 21.7299 19.1083 24.7988C19.1083 27.8676 21.3593 30.8379 21.6733 31.2523C21.9873 31.6667 26.0055 38.1951 32.4079 40.6944C38.8104 43.1937 38.7976 42.3575 39.955 42.2535C41.1125 42.1494 43.6756 40.7455 44.1996 39.2868C44.7235 37.8282 44.7253 36.5795 44.5647 36.3221H44.5683Z" fill="white"/>
</g>
<defs>
<filter id="filter0_d_32_473" x="0" y="0" width="62.2598" height="62.26" filterUnits="userSpaceOnUse" color-interpolation-filters="sRGB">
<feFlood flood-opacity="0" result="BackgroundImageFix"/>
<feColorMatrix in="SourceAlpha" type="matrix" values="0 0 0 0 0 0 0 0 0 0 0 0 0 0 0 0 0 0 127 0" result="hardAlpha"/>
<feOffset/>
<feGaussianBlur stdDeviation="2.5"/>
<feComposite in2="hardAlpha" operator="out"/>
<feColorMatrix type="matrix" values="0 0 0 0 0 0 0 0 0 0 0 0 0 0 0 0 0 0 0.25 0"/>
<feBlend mode="normal" in2="BackgroundImageFix" result="effect1_dropShadow_32_473"/>
<feBlend mode="normal" in="SourceGraphic" in2="effect1_dropShadow_32_473" result="shape"/>
</filter>
<linearGradient id="paint0_linear_32_473" x1="31.7359" y1="8.18408" x2="31.7359" y2="53.1143" gradientUnits="userSpaceOnUse">
<stop stop-color="#4AC14B"/>
<stop offset="1" stop-color="#06853A"/>
</linearGradient>
</defs>
</svg>
