<svg width="50" height="50" viewBox="0 0 50 50" fill="none" xmlns="http://www.w3.org/2000/svg">
<path d="M0 50C0.811675 47.6025 1.58408 45.3145 2.35886 43.0265C3.00153 41.1301 3.65849 39.2397 4.27736 37.3362C4.34492 37.0808 4.3139 36.8092 4.19048 36.5756C1.52814 31.9127 0.411789 26.9045 1.08303 21.5845C2.10655 13.4765 6.24585 7.35294 13.2808 3.22335C17.3879 0.813928 21.8831 -0.216982 26.6234 0.0377691C33.4977 0.409182 39.2865 3.16145 43.8971 8.30529C47.0081 11.7718 48.9647 15.8288 49.6717 20.425C50.8178 27.8854 48.9695 34.5602 44.0304 40.2861C39.9661 44.9966 34.7794 47.7418 28.611 48.537C23.5386 49.1905 18.6971 48.3441 14.1365 45.9978C13.9699 45.901 13.784 45.8421 13.592 45.8255C13.4001 45.8088 13.2069 45.8347 13.0261 45.9014C8.86059 47.2465 4.68439 48.5596 0.510571 49.881C0.382036 49.9155 0.248739 49.9393 0 50ZM6.22324 43.9181C6.44461 43.8645 6.54101 43.8467 6.63265 43.8169C8.91533 43.0896 11.1945 42.3491 13.4855 41.6468C13.789 41.5539 14.2257 41.5337 14.4745 41.6872C17.0757 43.3036 20.0017 44.3255 23.0435 44.68C28.1611 45.2752 32.8633 44.105 37.1002 41.2158C41.1372 38.4636 43.9292 34.7197 45.2539 29.9996C46.9915 23.8094 46.0203 18.0013 42.3523 12.717C39.709 8.9005 36.1053 6.26608 31.6637 4.88638C26.045 3.14121 20.6037 3.69357 15.4432 6.51965C12.1608 8.31481 9.5711 10.8695 7.65617 14.1027C5.42823 17.862 4.5618 21.9262 4.94027 26.2557C5.25208 29.827 6.48031 33.0745 8.5214 36.0172C8.6534 36.2464 8.69056 36.5181 8.62494 36.7744C8.37501 37.6291 8.0632 38.466 7.77756 39.3112C7.27056 40.8111 6.76594 42.3098 6.22324 43.9181Z" fill="white"/>
<path d="M17.9476 13.3213C19.0973 13.0273 19.5448 13.7975 19.9161 14.7391C20.4302 16.0486 20.9872 17.3438 21.5466 18.633C21.7739 19.1532 21.7846 19.6437 21.4609 20.0984C21.0241 20.7067 20.5647 21.3079 20.072 21.8769C19.6995 22.3019 19.6626 22.7019 19.9435 23.1721C21.8905 26.435 24.6064 28.7909 28.1554 30.1754C28.672 30.3766 29.0754 30.2777 29.4194 29.848C30.0013 29.1218 30.6095 28.4195 31.1772 27.6755C31.5509 27.191 31.9948 27.0684 32.5328 27.3183C34.1668 28.0826 35.7938 28.8659 37.4254 29.629C37.9074 29.8563 37.9598 30.2658 37.942 30.7277C37.8408 33.3586 36.5031 34.7561 33.7122 35.6251C32.5149 35.9977 31.3319 35.8894 30.1418 35.5501C26.4345 34.4978 22.9783 32.9943 20.1815 30.2325C17.8226 27.904 15.6935 25.3946 14.2939 22.3757C13.005 19.5889 13.1109 16.8819 15.1829 14.4236C15.9065 13.5665 16.7396 13.0677 17.9476 13.3213Z" fill="white"/>
</svg>
